<svg width="258" height="195" fill="none" xmlns="http://www.w3.org/2000/svg"><circle cx="73.568" cy="160.432" r="16.841" fill="#E5EEFC"/><circle cx="99.273" cy="186.136" r="8.864" fill="#E5EEFC"/><circle cx="157.773" cy="186.136" r="8.864" fill="#E5EEFC"/><circle cx="99.273" cy="186.136" r="8.864" fill="#E5EEFC"/><circle cx="212.727" cy="186.136" r="8.864" fill="#E5EEFC"/><circle cx="128.523" cy="160.432" r="16.841" fill="#E5EEFC"/><circle cx="238.432" cy="160.432" r="16.841" fill="#E5EEFC"/><circle cx="183.477" cy="160.432" r="16.841" fill="#E5EEFC"/><circle cx="73.568" cy="109.023" r="16.841" fill="#E5EEFC"/><circle cx="99.273" cy="134.727" r="8.864" fill="#E5EEFC"/><circle cx="157.773" cy="134.727" r="8.864" fill="#E5EEFC"/><circle cx="99.273" cy="134.727" r="8.864" fill="#E5EEFC"/><circle cx="212.727" cy="134.727" r="8.864" fill="#E5EEFC"/><circle cx="128.523" cy="109.023" r="16.841" fill="#E5EEFC"/><circle cx="238.432" cy="109.023" r="16.841" fill="#E5EEFC"/><circle cx="183.477" cy="109.023" r="16.841" fill="#E5EEFC"/><circle cx="73.568" cy="57.614" r="16.841" fill="#E5EEFC"/><circle cx="99.273" cy="83.318" r="8.864" fill="#E5EEFC"/><circle cx="157.773" cy="83.318" r="8.864" fill="#E5EEFC"/><circle cx="99.273" cy="83.318" r="8.864" fill="#E5EEFC"/><circle cx="212.727" cy="83.318" r="8.864" fill="#E5EEFC"/><circle cx="128.523" cy="57.614" r="16.841" fill="#E5EEFC"/><circle cx="238.432" cy="57.614" r="16.841" fill="#E5EEFC"/><circle cx="183.477" cy="57.614" r="16.841" fill="#E5EEFC"/><circle cx="213.614" cy="34.568" r="23.932" fill="#D4E1F7"/><circle cx="247.295" cy="9.75" r="9.75" fill="#D4E1F6"/><circle cx="49.636" cy="120.545" r="14.182" fill="#D4E1F6"/><circle cx="24.818" cy="170.182" r="24.818" fill="#D4E1F6"/></svg>