<svg width="240" height="241" fill="none" xmlns="http://www.w3.org/2000/svg"><circle cx="91" cy="159" r="70" fill="#FF5401"/><path d="m173.259 27.72 8.5 14.5-4 9-13-23.5h-34.5c-8 0-15-6.333-17.5-9.5l3.5-4.5c.4 2 7.167 5.167 10.5 6.5h9l-11-14h9.5l11 14h14l-11-14h10l11 14h12.5v7.5h-8.5Z" fill="#010101" stroke="#010101"/><path d="M71.555 71.398 95.725 3.72h1.267c.207.44.455 1.073.728 1.933.782 2.465 1.53 6.016 2.21 10.137 1.353 8.194 2.343 18.082 2.839 24.692l.243 3.238h8.747v-10.5c0-2.236.613-4.809 1.482-7.23.86-2.398 1.887-4.416 2.519-5.47l1.406-2.343-1.932-1.932c-.871-.871-1.666-2.436-2.294-4.663-.609-2.159-.959-4.558-1.202-6.749a5.335 5.335 0 0 1-.024-1.129c15.259-.165 45.893-.37 57.428.014 4.691.156 8.139 2.555 10.668 5.803 2.477 3.18 3.898 6.983 4.449 9.552V43.98l3.749-.268c2.348-.168 5.673.97 8.351 3.494 2.581 2.432 4.304 5.915 3.914 10.198-.276 3.037-2.193 5.659-5.054 7.828-2.849 2.16-6.216 3.535-8.362 4.107l-2.598.693V83.59l-7.78 20.909-1.412 3.795 3.959.848c1.427.306 3.345 1.861 5.358 4.685 1.888 2.647 3.358 5.699 4.108 7.649l.738 1.918 2.034.291c3.424.489 13.859 2.177 27.809 4.967 5.881 1.176 9.952 4.693 12.717 8.817 2.737 4.083 4.074 8.604 4.469 11.479v77.272c0 3.533-1.593 5.917-3.729 7.601-2.145 1.691-4.774 2.594-6.548 2.899H73.259c-5.713 0-9.135-2.248-11.245-4.878-2.225-2.773-3.13-6.168-3.261-8.334l-.72-11.86-5.825 10.356c-1.984 3.528-6.53 8.985-12.757 12.239-6.037 3.154-13.662 4.274-22.505-.59-6.985-3.842-10.58-9.859-12.246-16.022-1.644-6.083-1.352-12.147-.584-15.872 1.056-2.59 4.66-11.939 11.93-31.838 7.04-19.267 21.116-22.601 26.458-22.21l2.82.206.794-2.714 6-20.5.316-1.079-.372-1.062c-10.22-29.165-14.91-46.86-17.115-58.375-1.776-9.273-1.944-14.513-2.081-18.773-.032-1-.063-1.947-.112-2.878-.228-4.346.588-12.148 1.836-19.95 1.248-7.798 2.833-15.019 3.965-18.19.117-.326.224-.545.306-.687a4.4 4.4 0 0 1 .917.546c.323.24.633.516.908.793L63.45 71.357l.811 2.364h6.465l.83-2.323Zm25.031-68.37a.36.36 0 0 1 .074.092.402.402 0 0 1-.074-.092Zm-57.56.45Z" stroke="#010101" stroke-width="7"/><path d="M56.259 192.721c.4 21.2-10.5 33.833-16 37.5.333 2.833 2.8 6.8 10 0s12-18.167 13.5-23v-58.5c0-15.2 26.667-20 40-20.5v72h8v-81.5c-4.5.666-17.6 2.8-34 6s-21.167 17.333-21.5 24c-.167 5.833-.4 22.8 0 44Zm93.454-105.783c-4.787.683-9.966.85-13.454.793v-6.51h10c4.925 0 9.617-2.317 11.795-3.752l2.615 5.666c-.845.889-2.259 1.647-4.09 2.273-1.972.675-4.357 1.172-6.866 1.53Z" fill="#010101" stroke="#010101"/><path d="m78.759 125.221-21-59.5 7-1.5 2 6h1.5l1.629-4.5h7.371l-5.5 16 10.5 29 13.5-44c-2.8-2.4-3.833-9-4-12 .8-10.4 11.667-13.667 17-14v7c-2.167-.167-6.9 1.2-8.5 8-1.6 6.8 5 8.833 8.5 9v7.5l-6.5-1-15.5 53-8 1Z" fill="#010101"/><path d="m32.045 172.235-13 32.5-.231.579-.045.622c-.102 1.431-.078 3.636.36 5.765.219 1.068.574 2.278 1.179 3.404.601 1.122 1.584 2.404 3.162 3.193 1.837.919 4.85 1.997 8.108 1.262 3.612-.816 6.368-3.569 7.948-7.994 1.97-5.518 9.438-24.503 12.952-33.372l.097-.246.065-.257c.363-1.454.597-3.711.04-5.975-.582-2.373-2.157-5.056-5.498-6.236-1.802-.737-4.547-1.255-7.412-.504-3.191.836-6.076 3.136-7.725 7.259Z" stroke="#010101" stroke-width="8"/><path d="m191.601 230.695 6.077 2.026h-12.919V119.664l11.873 8.057h-5.373v54.299l.719-.35 18.396-8.949h21.885v7h-20.126l-.112.06-18.5 10-1.608.869 1.827.07 38.519 1.482v6.987l-40.47-2.467-.53-.033v33.892l.342.114ZM80.759 208.221c8.4 0 61.5 11 87 16.5v-116h8v126h-24v-5.5h-7.5v4.5h-56l40.5-9c-9.2-2.8-35.833-6.5-48-8h-20v-8.5h20Z" fill="#010101" stroke="#010101"/><path d="m85.259 172.221 20.5 11.5v7.5l-22-11h-21v-8h22.5Zm95.473-89.839.027-.078V59.72h6.5v24.408l-11.848 31.101c-8.744.248-21.602.542-32.668.628-5.605.044-10.745.035-14.658-.061-1.957-.047-3.6-.116-4.839-.21a22.262 22.262 0 0 1-1.527-.158c-.41-.06-.653-.121-.763-.168-.083-.035-.22-.131-.409-.332a6.344 6.344 0 0 1-.619-.803c-.458-.68-.975-1.611-1.535-2.743-1.119-2.26-2.384-5.269-3.655-8.543-2.528-6.513-5.061-14.032-6.479-18.694V59.721h7v21.544l.008.044c3.615 20.086 10.913 25.947 14.298 27.373l.093.039h37.764l.131-.096c1.186-.862 2.435-2.503 3.669-4.525 1.243-2.038 2.506-4.52 3.704-7.12 2.396-5.203 4.552-10.92 5.806-14.598Z" fill="#010101" stroke="#010101"/><path d="M108.259 44.72c6.4 0 12.333-12 14.5-18l7 2c-3.2 10-8.333 17.167-10.5 19.5v1.5l10.5 18.5h36l10-18.5v-3h8.5l-.5 5.5-3 4.5c-4.4 9.2-10.5 16.5-13 19h-38c-4.4 0-10.167-10.666-12.5-16h-9v-15Zm3.5 77.001c.8-5.2 7.167-8.834 10.5-10l-4-7c-7.2 2.8-13.833 12-15.5 15.5l9 1.5Z" fill="#010101" stroke="#010101"/><path d="M187.259 58.72h-7v-18h7v18Zm-51 4 8-20 7 3-8 20-7-3Z" fill="#010101" stroke="#010101"/><circle cx="129.759" cy="50.221" r="5.5" fill="#010101" stroke="#010101"/><circle cx="165.759" cy="50.221" r="5.5" fill="#010101" stroke="#010101"/><path fill="#010101" stroke="#010101" d="M64.259 120.721h7v7h-7zm56.5 80v-90h7v93.5c0 2.8-2.333 3.833-3.5 4h-15.5c-4 0-5.333-2.667-5.5-4v-16.5h8.5v13h9Z"/><path d="m169.759 186.721-43.5-1.5v8l43.5 2.5v-9Z" fill="#010101" stroke="#010101"/><path d="M136.259 187.721v-50.5l7.5-4.5v55.5l-7.5-.5Zm16 1.5v-56l7.5 7.5v48.5h-7.5Z" fill="#010101" stroke="#010101"/><path d="m149.601 129.978-2.199-1.588 1.122-.375 20.723-6.907a57.27 57.27 0 0 1-.109 1.397c-.164 1.873-.435 4.226-.759 6.758a508.373 508.373 0 0 1-1.852 12.941c-.181.019-.9.013-2.235-1.079-4.5-3.682-11.683-8.974-14.691-11.147Zm-3.578-1.953.826.268-2.202 1.898-13.695 11.806c-.723.115-1.547.192-2.253.166a75.168 75.168 0 0 1-.399-1.837c-.359-1.737-.78-3.966-1.218-6.381a849.31 849.31 0 0 1-2.096-12.164l.216.044a45.25 45.25 0 0 1 1.967.476c1.618.424 3.693 1.018 5.947 1.69a599.833 599.833 0 0 1 12.907 4.034Zm23.258-8.836.001.003-.001-.003Z" stroke="#010101" stroke-width="8"/></svg>