<svg width="219" height="269" fill="none" xmlns="http://www.w3.org/2000/svg"><circle cx="118" cy="187" r="66" fill="#FF5401"/><path fill-rule="evenodd" clip-rule="evenodd" d="M4.5 139v89.5L0 237v25.5c.5 1.667 2.1 5.1 4.5 5.5 2.4.4 41.333.167 60.5 0h50c1-1 3-3.6 3-6v-24.5l-4.5-9V128c1.5-1.167 4.5-4.1 4.5-6.5v-19c-.167-1.333-1.7-4.6-6.5-7-4.8-2.4-21.333-10.333-29-14 .667-4.667 2-15.3 2-20.5 0-5.2-1.667-16.833-2.5-22V5.5C81.333 3.667 79.5 0 77.5 0h-38c-1 .833-3 3.1-3 5.5s-.333 23-.5 33c-1.667 10.5-4 33.8 0 43l-32.5 16c-1.167.833-3.5 3.3-3.5 6.5v17.5c.167 2.333 2.1 7.1 8.5 7.5 6.4.4 66.667.167 96 0v95.5h-91V139h-9Zm41-132.5V34h27V6.5h-27Zm-1 36.5c-1 4.333-2.8 14.9-2 22.5l33 .5c-.167-5.5-.8-17.8-2-23h-29Zm55.5 77.5V111h9v9.5h-9ZM18 107v13.5H9v-16l34.5-17c.833-.667 2.3-3 1.5-7-.8-4-1.333-5.333-1.5-5.5h31l-2 7.5c-.167 1 .1 3.4 2.5 5s20.333 10.333 29 14.5l-67.5.5v8.5H91v9l-64 .5V107h-9Zm82 127h6.5l2.5 5v4h-9v-9Zm0 18v9.5h9V252h-9ZM9 238.5l2.5-4.5h79v9.5h-54v8.5H91v9H27v-17.5h-9V261H9v-22.5Z" fill="#010101"/><path d="m30 157-5.5-7.5c5-3.667 19-11 35-11s29.333 7.667 34 11.5l-6 7c-2.667-3.167-12-9.5-28-9.5S33.167 153.833 30 157Z" fill="#010101" stroke="#010101"/><path fill-rule="evenodd" clip-rule="evenodd" d="M59 184c12.426 0 22.5-6.044 22.5-13.5S71.426 157 59 157s-22.5 6.044-22.5 13.5S46.574 184 59 184Zm0-8c8.008 0 14.5-2.462 14.5-5.5S67.008 165 59 165s-14.5 2.462-14.5 5.5S50.992 176 59 176Z" fill="#010101"/><path d="M32 197.792V188.5h54v9.292H32Z" fill="#010101" stroke="#010101"/><path fill-rule="evenodd" clip-rule="evenodd" d="M127.5 180v77c0 3.167 1.4 9.7 7 10.5 5.6.8 54.333.333 78 0 1.833-.5 5.5-3.4 5.5-11V179c-.333-1.333-1.6-4-4-4h-82c-1.5 0-4.5 1-4.5 5Zm9 13v-9H209v9h-72.5Zm0 50v-40.5H209V243h-9v-24.5c-.5-2.333-2.7-7-7.5-7h-26c-2.5.667-7.5 3-7.5 7V243h-22.5Zm0 9.5c-.167 2.833.3 8.5 3.5 8.5h65.5c1.5-.167 4.3-2.1 3.5-8.5h-72.5Zm32-32V243H191v-22.5h-22.5Z" fill="#010101"/><path d="m134.5 267.5-.071.495.071-.495Zm78 0 .007.5.063-.001.062-.017-.132-.482ZM218 179h.5v-.062l-.015-.059L218 179Zm-81.5 5v-.5h-.5v.5h.5Zm0 9h-.5v.5h.5v-.5Zm72.5-9h.5v-.5h-.5v.5Zm0 9v.5h.5v-.5h-.5Zm-72.5 9.5v-.5h-.5v.5h.5Zm0 40.5h-.5v.5h.5v-.5Zm72.5-40.5h.5v-.5h-.5v.5Zm0 40.5v.5h.5v-.5h-.5Zm-9 0h-.5v.5h.5v-.5Zm0-24.5h.5v-.053l-.011-.052-.489.105Zm-33.5-7v-.5h-.066l-.063.017.129.483ZM159 243v.5h.5v-.5h-.5Zm-22.5 9.5v-.5h-.472l-.027.471.499.029Zm69 8.5v.5h.028l.027-.003-.055-.497Zm3.5-8.5.496-.062-.055-.438H209v.5Zm-40.5-9.5h-.5v.5h.5v-.5Zm0-22.5v-.5h-.5v.5h.5ZM191 243v.5h.5v-.5h-.5Zm0-22.5h.5v-.5h-.5v.5ZM128 257v-77h-1v77h1Zm6.571 10.005c-2.586-.369-4.22-2.055-5.223-4.089C128.34 260.872 128 258.527 128 257h-1c0 1.64.36 4.145 1.452 6.359 1.097 2.224 2.963 4.205 5.977 4.636l.142-.99Zm77.922-.005c-11.832.167-29.93.367-45.77.425-7.92.029-15.273.023-20.996-.041-5.743-.063-9.797-.185-11.156-.379l-.142.99c1.441.206 5.578.326 11.287.389 5.73.064 13.089.07 21.011.041 15.844-.058 33.946-.258 45.78-.425l-.014-1Zm5.007-10.5c0 7.435-3.569 10.092-5.132 10.518l.264.964c2.104-.574 5.868-3.717 5.868-11.482h-1Zm0-77.5v77.5h1V179h-1Zm-3.5-3.5c.993 0 1.78.547 2.383 1.31a6.521 6.521 0 0 1 1.132 2.311l.97-.242a7.52 7.52 0 0 0-1.318-2.689c-.713-.903-1.76-1.69-3.167-1.69v1Zm-82 0h82v-1h-82v1Zm-4 4.5c0-1.858.689-2.961 1.5-3.61a4.185 4.185 0 0 1 2.5-.89v-1c-.841 0-2.083.276-3.125 1.11-1.064.851-1.875 2.248-1.875 4.39h1Zm8 4v9h1v-9h-1Zm73-.5h-72.5v1H209v-1Zm.5 9.5v-9h-1v9h1Zm-73 .5H209v-1h-72.5v1Zm-.5 9V243h1v-40.5h-1Zm73-.5h-72.5v1H209v-1Zm.5 41v-40.5h-1V243h1Zm-9.5.5h9v-1h-9v1Zm-.5-25V243h1v-24.5h-1Zm-7-6.5c2.216 0 3.835 1.07 4.978 2.445 1.152 1.385 1.797 3.057 2.033 4.16l.978-.21c-.264-1.23-.969-3.058-2.242-4.59-1.282-1.542-3.163-2.805-5.747-2.805v1Zm-26 0h26v-1h-26v1Zm-7 6.5c0-1.772 1.106-3.225 2.612-4.349 1.5-1.12 3.313-1.847 4.517-2.168l-.258-.966c-1.296.346-3.233 1.119-4.858 2.332-1.619 1.209-3.013 2.923-3.013 5.151h1Zm0 24.5v-24.5h-1V243h1Zm-23 .5H159v-1h-22.5v1Zm3.5 17c-.629 0-1.127-.27-1.54-.754-.425-.498-.753-1.218-.991-2.068-.476-1.699-.551-3.764-.47-5.149l-.998-.058c-.085 1.448-.011 3.633.505 5.476.258.921.636 1.795 1.193 2.448.569.667 1.33 1.105 2.301 1.105v-1Zm65.5 0H140v1h65.5v-1Zm3.004-7.938c.391 3.127-.107 5.087-.82 6.267-.712 1.181-1.655 1.609-2.239 1.674l.11.994c.916-.102 2.123-.723 2.986-2.151.862-1.429 1.364-3.635.955-6.908l-.992.124ZM136.5 253H209v-1h-72.5v1Zm32.5-10v-22.5h-1V243h1Zm22-.5h-22.5v1H191v-1Zm-.5-22V243h1v-22.5h-1Zm-22 .5H191v-1h-22.5v1Z" fill="#010101"/></svg>