<svg width="279" height="129" fill="none" xmlns="http://www.w3.org/2000/svg"><path d="M6.48 51.629c-1.59-5.332-4.05-17.672-1.16-24.38-.947-1.16-2.864-4.901-2.968-10.577l.774 2.967.387-9.417.645 2.967c1.118-2.193 3.819-6.914 5.676-8.256-.172 1.333.155 4.49 2.838 6.45-.602-.86-1.806-2.812-1.806-3.74.516.816 1.806 2.398 2.838 2.192 1.032-.206 0-2.236-.645-3.225.559.516 1.754 1.548 2.064 1.548.341 0-.523-1.406-1.174-1.914-.345-.147-.506-.254-.245-.15.076.03.159.082.245.15.508.216 1.41.52 1.948.366.903-.258 6.32-3.74 15.479-5.16 9.159-1.418 14.834.774 19.091 2.967 4.257 2.193 11.352 8.127 10.062 16.64 2.837 1.591 8.358 6.915 7.74 15.48-.62 8.565-1.463 13.544-1.807 14.963 2.15-.043 5.908 1.858 3.741 9.803-2.167 7.947-4.859 9.933-5.934 9.933l.516 6.708c.215 2.58.852 8.152 1.677 9.803 1.032 2.064 1.677 13.802 1.677 14.963 0 1.161-1.032-6.062-1.677-6.836.215 3.569.026 11.609-2.45 15.221a213.523 213.523 0 0 1-4.957 6.919c-.262.371-.507.691-.72.95.18-.234.424-.555.72-.95 1.44-2.034 3.408-5.583 3.408-8.725-1.419 3.569-5.392 11.3-9.932 13.673 1.247-1.419 3.792-4.592 3.999-5.933-1.978 2.709-6.889 8.307-10.707 9.029.731-.344 2.193-1.109 2.193-1.419 0-.387 0-1.161.774-2.193s-5.418 5.16-8.771 4.902l.387-.903c-1.376.559-4.386 1.651-5.418 1.548-1.032-.103-4.902-1.591-6.708-2.322.502.57 1.537 1.567 2.409 1.931.667.086.965.102.687.133-.205.023-.44-.029-.687-.133-2.122-.273-7.978-1.255-10.922-5.672-.043.688.438 2.4 2.708 3.741-1.934-1.075-6.63-4.36-9.932-8.9.468 1.376 2 4.437 4.386 5.675-1.462-.172-5.237-2.889-8.643-12.383.172 1.72.851 5.573 2.193 7.224-1.118-.989-3.74-4.618-5.289-11.223v-8.126c-.387 1.419-1.135 4.514-1.032 5.546-.43-2.837-.67-10.19 1.806-16.898.387-.903 1.161-3.844 1.161-8.384 0-4.54.602-6.192.903-6.45-1.806-.946-5.701-4.824-6.837-12.77-1.135-7.946 3.053-8.213 5.29-7.353Z" fill="#000"/><path d="M6.48 51.629c-1.59-5.332-4.05-17.672-1.16-24.38-.947-1.16-2.864-4.901-2.968-10.577l.774 2.967.387-9.417.645 2.967c1.118-2.193 3.819-6.914 5.676-8.256-.172 1.333.155 4.49 2.838 6.45-.602-.86-1.806-2.812-1.806-3.74.516.816 1.806 2.398 2.838 2.192 1.032-.206 0-2.236-.645-3.225.559.516 1.754 1.548 2.064 1.548.387 0-.774-1.806-1.42-2.064-.644-.258 1.29.774 2.194.516.903-.258 6.32-3.74 15.479-5.16 9.159-1.418 14.834.774 19.091 2.967 4.257 2.193 11.352 8.127 10.062 16.64 2.837 1.591 8.358 6.915 7.74 15.48-.62 8.565-1.463 13.544-1.807 14.963 2.15-.043 5.908 1.858 3.741 9.803-2.167 7.947-4.859 9.933-5.934 9.933l.516 6.708c.215 2.58.852 8.152 1.677 9.803 1.032 2.064 1.677 13.802 1.677 14.963 0 1.161-1.032-6.062-1.677-6.836.215 3.569.026 11.609-2.45 15.221-2.477 3.612-4.816 6.751-5.676 7.869 1.376-1.677 4.127-5.96 4.127-9.675-1.419 3.569-5.392 11.3-9.932 13.673 1.247-1.419 3.792-4.592 3.999-5.933-1.978 2.709-6.889 8.307-10.707 9.029.731-.344 2.193-1.109 2.193-1.419 0-.387 0-1.161.774-2.193s-5.418 5.16-8.771 4.902l.387-.903c-1.376.559-4.386 1.651-5.418 1.548-1.032-.103-4.902-1.591-6.708-2.322.645.731 2.167 2.167 3.096 2.064 1.16-.129-7.74 0-11.61-5.805-.042.688.44 2.4 2.71 3.741-1.935-1.075-6.63-4.36-9.933-8.9.468 1.376 2 4.437 4.386 5.675-1.462-.172-5.237-2.889-8.643-12.383.172 1.72.851 5.573 2.193 7.224-1.118-.989-3.74-4.618-5.289-11.223v-8.126c-.387 1.419-1.135 4.514-1.032 5.546-.43-2.837-.67-10.19 1.806-16.898.387-.903 1.161-3.844 1.161-8.384 0-4.54.602-6.192.903-6.45-1.806-.946-5.701-4.824-6.837-12.77-1.135-7.946 3.053-8.213 5.29-7.353Z" stroke="#000"/><path d="M38.436 9.337c1.159.838 3.41 2.911 4.974 5.598a28.917 28.917 0 0 0-2.2-2.622c-1.649-1.739-3.7-3.425-5.921-4.237-2.187-.8-5.01-1.158-7.62-1.288a49.31 49.31 0 0 0-1.205-.045c6.317-.84 10.518.68 11.98 1.697l.023.016.025.013c.124.067.246.135.367.204l-.423.664Zm5.084 3.264c1.42 1.74 2.378 3.637 3.003 5.452a89.368 89.368 0 0 0-.365-.922 18.424 18.424 0 0 0-2.639-4.53Z" fill="#767573" stroke="#767573"/><path d="M41.309 7.513c9.184 5.263 9.674 12.857 8.771 15.995-.258-1.934 0-3.353-.903-5.804s-.903-3.225-5.03-7.353c-3.19-3.189-8.88-4.55-11.59-4.871 3.819.435 7.408 1.53 8.752 2.033Z" fill="#AFADAE"/><path d="M50.08 23.508c.903-3.138.413-10.732-8.771-15.995-1.376-.516-5.109-1.65-9.03-2.064 2.58.258 8.565 1.6 11.867 4.902 4.128 4.128 4.128 4.902 5.031 7.353.903 2.45.645 3.87.903 5.804Z" stroke="#AFADAE"/><mask id="a" fill="#fff"><path d="M42.856 7.9c1.85 1.72 5.65 5.521 6.063 6.966.516 1.806 0-4.515-6.063-6.966Z"/></mask><path d="M42.856 7.9c1.85 1.72 5.65 5.521 6.063 6.966.516 1.806 0-4.515-6.063-6.966Z" fill="#636363"/><path d="m42.856 7.9.375-.927-1.056 1.66.681-.733Zm6.063 6.966.962-.275-.962.275Zm-6.744-6.234a67.072 67.072 0 0 1 3.514 3.53c.606.661 1.154 1.3 1.571 1.85.445.589.651.965.698 1.129l1.923-.55c-.16-.56-.584-1.2-1.026-1.784a28.788 28.788 0 0 0-1.691-1.996 69.28 69.28 0 0 0-3.627-3.643l-1.362 1.464Zm5.783 6.509c.037.13.08.262.13.375.022.05.066.145.137.243.034.046.11.143.233.232a1.012 1.012 0 0 0 1.593-.642 1.36 1.36 0 0 0 .02-.282 2.556 2.556 0 0 0-.046-.367c-.09-.477-.327-1.262-.774-2.164a11.44 11.44 0 0 0-6.02-5.563l-.75 1.854a9.44 9.44 0 0 1 4.978 4.596c.375.758.548 1.369.6 1.645.014.071.013.091.012.072 0-.001-.003-.068.015-.163a.988.988 0 0 1 1.756-.397.81.81 0 0 1 .058.093l.018.035a.913.913 0 0 1-.037-.117l-1.923.55Z" fill="#636363" mask="url(#a)"/><path d="M41.309 2.095c3.224.731 10.319 3.664 12.899 9.546 2.419 5.515 1.776 9.873 1.048 11.672-.003.162-.009.313-.016.453l-.13-.129a3.73 3.73 0 0 0 .146-.324c.062-2.72-.419-8.338-2.854-12.317-2.58-4.216-8.47-7.69-11.093-8.9Z" fill="url(#b)"/><path d="M57.69 17.704c.207-3.096-2.837-6.966-4.385-8.514.989 1.548 3.096 5.237 3.612 7.61.516 2.374-.13 5.203-.516 6.322.344-.517 1.083-2.322 1.29-5.418Z" fill="#303030" stroke="#303030"/><path d="M57.562 14.479c-1.445-4.644-6.794-8.385-9.288-9.675 3.44 1.462 10.474 5.78 11.094 11.352.619 5.572-2.064 7.74-3.483 8.126 1.29-.774 3.483-3.998 1.677-9.803Z" fill="url(#c)"/><path d="M14.994 6.868c.21-.004.454-.014.731-.032 2.904-.57 13.373-4.416 17.457-4.87 4.644-.515 10.19 1.677 11.996 2.71 1.806 1.031 5.547 4.514 7.998 9.932 1.96 4.334.645 7.654-.258 8.771.774-3.224.258-4.514-.774-7.997-1.032-3.483-5.676-9.546-10.578-11.352-3.921-1.444-8.126-1.419-12.125-.387-5.775 2.236-11.144 3.028-13.716 3.193-.398.078-.653.094-.731.032Z" fill="url(#d)"/><path d="M17.832 17.188c-7.327-3.406-8.729-7.783-8.514-9.546 4.257 6.579 3.225 5.805 11.48 9.546 6.605 2.992 8.944 8.126 9.288 10.32-1.419-3.226-3.096-6.063-12.254-10.32Z" fill="#E1E0DC" stroke="#E1E0DC"/><mask id="e" fill="#fff"><path d="M9.06 12.028c.215 1.505 1.496 4.876 4.902 6.32-1.505-1.504-4.592-4.875-4.902-6.32Z"/></mask><path d="M9.06 12.028c.215 1.505 1.496 4.876 4.902 6.32-1.505-1.504-4.592-4.875-4.902-6.32Z" fill="#6C6C6C"/><path d="m9.06 12.028.978-.21-1.968.351.99-.141Zm4.902 6.32-.39.921 1.097-1.627-.707.707ZM8.07 12.17c.244 1.709 1.66 5.47 5.501 7.1l.781-1.84c-2.969-1.26-4.116-4.24-4.302-5.542l-1.98.282Zm6.599 5.473a47.261 47.261 0 0 1-2.835-3.112 20.032 20.032 0 0 1-1.253-1.665c-.35-.532-.508-.88-.543-1.046l-1.956.418c.12.557.463 1.171.827 1.726.384.584.87 1.219 1.382 1.839a49.231 49.231 0 0 0 2.964 3.254l1.414-1.414Z" fill="#6C6C6C" mask="url(#e)"/><path d="M13.741 19.941a13.636 13.636 0 0 1-1.696-.726c.16.061.328.121.503.182.825.288 1.846.595 3.138.983l.84.253c1.245.376 2.343.827 3.302 1.312a67.14 67.14 0 0 0-1.979-.649l-.2-.063c-1.096-.347-2.367-.748-3.908-1.292Z" fill="#9F9B9C" stroke="#9F9B9C"/><path d="M15.704 21.98c-2.223-.298-3.937-1.046-5.244-1.995.8.459 1.566.805 2.169 1.026l.02.008.023.006c1.156.31 2.2.637 3.137.97a7.87 7.87 0 0 0-.105-.014Z" fill="#777578" stroke="#777578"/><mask id="f" fill="#fff"><path d="m6.222 19.51.03.095c.15.306.894 1.19 3.066 3 2.477 2.064 6.364 2.924 7.998 3.096v.516c.258.043.593.104-.13 0-.722-.103-3.224-.645-4.385-.903-4.138-1.21-6.064-4.249-6.548-5.709a.242.242 0 0 1-.03-.095Z"/></mask><path d="m6.222 19.51.03.095c.15.306.894 1.19 3.066 3 2.477 2.064 6.364 2.924 7.998 3.096v.516c.258.043.593.104-.13 0-.722-.103-3.224-.645-4.385-.903-4.138-1.21-6.064-4.249-6.548-5.709a.242.242 0 0 1-.03-.095Z" fill="#70706E"/><path d="m6.222 19.51.957-.29-1.957.29h1Zm6.579 5.804-.28.96.03.01.033.007.217-.977Zm4.515.903h-1v.847l.835.14.165-.987Zm0-.516h1v-.9l-.896-.094-.104.994Zm-7.998-3.096.64-.768-.64.768ZM5.265 19.8l.039.12 1.898-.63a2.866 2.866 0 0 1-.023-.07l-1.914.58Zm.039.12c.571 1.722 2.715 5.037 7.216 6.354l.562-1.92c-3.776-1.105-5.483-3.866-5.88-5.064l-1.898.63Zm7.28 6.37c1.14.254 3.69.807 4.461.917l.283-1.98c-.674-.096-3.128-.626-4.31-.889l-.434 1.953Zm4.461.917c.181.026.304.043.38.052a2.232 2.232 0 0 0 .19.015c.015 0 .046 0 .085-.003.015-.001.132-.008.269-.059a1 1 0 0 0-.07-1.9c-.079-.023-.193-.042-.217-.047a19.574 19.574 0 0 0-.202-.034l-.329 1.973.18.03c.087.016.06.013.008-.002a.979.979 0 0 1-.333-.171 1 1 0 0 1 .27-1.725c.137-.05.253-.058.267-.059.038-.003.067-.003.081-.003.03 0 .051.002.057.002.02.002.025.003-.01-.002a22.565 22.565 0 0 1-.343-.047l-.283 1.98Zm1.27-.99v-.516h-2v.516h2Zm-.895-1.51c-.745-.079-2.054-.321-3.471-.793-1.424-.474-2.885-1.155-3.99-2.077l-1.281 1.537c1.371 1.142 3.091 1.923 4.64 2.438 1.553.517 3.004.79 3.893.884l.21-1.99Zm-7.462-2.87c-1.07-.891-1.772-1.542-2.217-1.996-.474-.484-.593-.681-.59-.676l-1.796.88c.152.312.48.71.958 1.196.507.517 1.263 1.214 2.365 2.133l1.28-1.537Zm-2.807-2.672a.868.868 0 0 1 .072.344h-2c0 .26.096.463.132.536l1.796-.88Z" fill="#70706E" mask="url(#f)"/><path d="M15.252 28.152c-7.843-.31-10.406-8.341-10.578-12.254-.928 9.494 5.891 12.555 9.417 12.9l1.16-.646Z" fill="#8C8E89" stroke="#8C8E89"/><path d="M62.334 84.393v-.774l3.612 5.934-3.612-5.16Z" fill="#393939" stroke="#393939"/><path d="M65.996 94.482c-.531-1.606-3.603-6.818-5.21-9.444l2.322 1.42c2.044 2.334 2.693 6.577 2.888 8.024.052.156.08.278.08.36 0 .285-.016.11-.08-.36Z" fill="#41413F"/><path d="M60.787 85.038c1.763 2.881 5.288 8.875 5.288 9.804 0 1.16-.258-5.289-2.967-8.385l-2.321-1.419Z" stroke="#41413F"/><path d="M64.398 99.744c.31-5.47-2.966-11.395-4.643-13.674.773.473 2.631 1.935 3.87 4 1.238 2.063 1.031 7.309.773 9.674Z" fill="#464646" stroke="#464646"/><path d="m58.98 87.102.029.044c.208.315 1.007 1.288 2.81 3.052 1.897 1.858 1.478 6.622 1.031 8.772 0-4.61-2.542-9.772-3.841-11.823a1.18 1.18 0 0 1-.028-.045Z" fill="#666867"/><path d="M58.98 87.102c1.29 2.021 3.87 7.224 3.87 11.868.447-2.15.866-6.914-1.032-8.772-1.898-1.857-2.682-2.838-2.837-3.096Z" stroke="#666867"/><path d="M61.431 101.936c.413-4.024-2.751-11.394-4.385-14.576 1.247.731 3.998 3.586 5.03 9.159 1.032 5.572-1.117 10.663-2.321 12.512.387-.688 1.264-3.07 1.676-7.095Z" fill="#666867" stroke="#666867"/><path d="M60.013 100.389c-.31-5.573-3.655-10.492-5.29-12.255l2.58.774c2.58 2.374 2.882 8.643 2.71 11.481Z" fill="#595959" stroke="#595959"/><path d="M59.26 103.865c-.067.261-.145.542-.232.84l.06-.369c.207-1.315.199-2.692.041-4.07.206.911.338 1.622.388 1.995.013.098.008.285-.038.577a11.26 11.26 0 0 1-.22 1.027Z" fill="#3C3C3C" stroke="#3C3C3C"/><path d="M56.514 100.518c0-.451-.02-.9-.06-1.347.238.912.407 1.814.48 2.679.154 1.808-.226 3.906-.862 5.974.314-2.297.442-4.779.442-7.306Z" fill="#B2B2B2" stroke="#B2B2B2"/><path d="M49.951 92.004c.817 1.452 2.208 4.04 2.961 5.77.84 1.446 1.443 2.193 1.296 1.067-.387-2.967-1.935-6.837-1.42-7.095.517-.258 2.194 8.901 2.323 7.61.103-1.031-.817-5.16-1.29-7.094 1.548 1.032 2.107 9.201 2.193 13.157-.691 1.868-1.729 4.719-2.304 6.418-.063.532-.153.946-.276 1.193-.293.585-.115-.037.276-1.193.397-3.363-.276-11.478-.276-12.48 0-.276-.204-.853-.522-1.582-.929-1.6-2.148-4.054-2.961-5.771Z" fill="#BCBCBA"/><path d="M49.951 92.004c1.161 2.064 3.483 6.424 3.483 7.353 0 1.161.903 11.867 0 13.673-.722 1.445 1.419-4.472 2.58-7.611-.086-3.956-.645-12.125-2.193-13.157.473 1.935 1.393 6.063 1.29 7.095-.13 1.29-1.806-7.869-2.322-7.611s1.032 4.128 1.419 7.095c.31 2.373-2.709-3.57-4.257-6.837Z" stroke="#BCBCBA"/><path d="M52.386 103.083c-.055-1.87-.883-3.995-1.853-5.854-.129-.247-.261-.49-.395-.73 1.063 1.032 2.019 1.98 2.406 2.416.039.043.128.216.223.604.087.36.163.831.226 1.386.127 1.107.2 2.501.231 3.913.032 1.41.024 2.829-.008 3.982-.032 1.169-.089 2.024-.145 2.335-.046.254-.265.723-.618 1.314-.25.418-.547.864-.844 1.281l.025-.128c.17-.909.321-2.012.443-3.198.244-2.371.374-5.102.309-7.321Z" fill="#787876" stroke="#787876"/><path d="M48.423 108.191a21.994 21.994 0 0 1-.503 2.581c.469-2.355.693-4.688.596-6.54-.112-2.11-.709-4.42-1.39-6.41.281.523.592 1.203.864 2.085.557 1.812.94 4.48.433 8.284Z" fill="#E5E7E4" stroke="#E5E7E4"/><path d="M45.956 111.382c1.211-5.693-.2-10.904-1.934-14.41 3.487 3.915 3.471 8.265 3.366 10.487-.022.453-.219 1.144-.565 2.008a27.237 27.237 0 0 1-.867 1.915Z" fill="#5C5C5C" stroke="#5C5C5C"/><path d="M40.792 116.255c.723-4.954-.902-17.715-1.805-23.477 4.514 4.644 4.385 12.125 4.514 14.834.104 2.167-1.762 6.665-2.709 8.643Z" fill="#696967" stroke="#696967"/><path d="M39.652 100.103c.148 2.898.378 7.944.479 11.606l-.127-1.26a580.85 580.85 0 0 0-.617-5.59c-.3-2.618-.636-5.477-.941-8.03l1.206 3.274Zm-.114 17.75c-.07.16-.143.32-.22.479l.055-.209c.244-.927.465-1.873.624-2.696.075-.382.137-.745.183-1.071.002.507-.003.926-.016 1.232-.028.652-.267 1.441-.626 2.265Z" fill="#C5C5C5" stroke="#C5C5C5"/><mask id="g" fill="#fff"><path d="M37.439 113.675v-12.899l.774 10.448-.774 2.451Z"/></mask><path d="M37.439 113.675v-12.899l.774 10.448-.774 2.451Z" fill="#80807E"/><path d="m37.439 100.776.997-.074-1.997.074h1Zm0 12.899h-1l1.953.301-.953-.301Zm.774-2.451.953.301.058-.183-.014-.192-.997.074Zm-1.774-10.448v12.899h2v-12.899h-2Zm1.953 13.2.774-2.451-1.907-.602-.774 2.451 1.907.602Zm.818-2.826-.774-10.448-1.995.147.774 10.449 1.995-.148Z" fill="#80807E" mask="url(#g)"/><path d="M36.577 112.356a15.48 15.48 0 0 0-.227.822 278.54 278.54 0 0 1 .316-4.063c0 .384-.002.749-.005 1.088a47.049 47.049 0 0 1-.035 1.523 9.639 9.639 0 0 1-.03.471 2.094 2.094 0 0 1-.019.159Z" fill="#D3D3D3" stroke="#D3D3D3"/><mask id="h" fill="#fff"><path d="M36.665 94.197c-.258 4.386-.877 13.751-1.29 16.124-.516 2.967-.774-12.641 1.29-16.124Z"/></mask><path d="M36.665 94.197c-.258 4.386-.877 13.751-1.29 16.124-.516 2.967-.774-12.641 1.29-16.124Z" fill="#727270"/><path d="m36.665 94.197.998.059-1.859-.569.86.51Zm-1.29 16.124.985.171-.985-.171Zm.291-16.183c-.26 4.422-.876 13.71-1.276 16.012l1.97.342c.425-2.445 1.047-11.887 1.303-16.236l-1.997-.118ZM34.39 110.15a1.66 1.66 0 0 1-.028.134c-.01.04.004-.039.07-.145a.933.933 0 0 1 .35-.326.98.98 0 0 1 .937.001.941.941 0 0 1 .357.342.75.75 0 0 1 .065.136c.014.04 0 .006-.023-.177a11.005 11.005 0 0 1-.051-.63c-.062-1.061-.08-2.81-.015-4.775.064-1.963.207-4.111.459-5.973.126-.931.277-1.776.454-2.482.181-.72.375-1.236.56-1.548l-1.72-1.02c-.332.559-.581 1.293-.78 2.08a25.19 25.19 0 0 0-.496 2.702c-.264 1.951-.411 4.173-.476 6.176-.065 2.002-.05 3.816.017 4.957.017.286.038.54.062.749.022.182.055.413.122.602a1.11 1.11 0 0 0 .504.615c.31.17.678.165.98.001.23-.125.349-.303.393-.374.096-.154.141-.313.161-.388.027-.098.049-.205.068-.315l-1.97-.342Z" fill="#727270" mask="url(#h)"/><path d="M34.708 99.046c.029-.185.057-.365.086-.538a318.38 318.38 0 0 0-.337 3.242c.038-.92.117-1.835.251-2.704Z" fill="#888" stroke="#888"/><path d="m34.847 119.795-.031.133-.05-.311.081.178Zm-1.585-12.575-.004.6-.065-.719c-.242-2.757-.383-5.395-.35-7.594.01-.582.03-1.127.065-1.632l.585 1.316.28-1.397c-.263 2.835-.476 6.165-.51 9.426Z" fill="#8E8E8E" stroke="#8E8E8E"/><path d="M31.94 108.563c-.13-1.941-.174-3.886-.083-5.657l1.046 13.789a83.332 83.332 0 0 1-.964-8.132Z" fill="#545454" stroke="#545454"/><path d="M30.974 101.267c-.58 6.322.004 12.12.78 16.157-1.402-3.529-1.72-7.478-1.453-11.244.121-1.702.362-3.359.673-4.913Z" fill="#CACACA" stroke="#CACACA"/><mask id="i" fill="#fff"><path d="M6.222 90.972c.207-1.341 3.182-4.773 4.644-6.32-.929.515-2.193 1.676-2.709 2.192.103-.516 1.161-2.365 1.677-3.225 1.032-1.16 2.477-2.812 0-.129s-3.44 6.106-3.612 7.482Z"/></mask><path d="M6.222 90.972c.207-1.341 3.182-4.773 4.644-6.32-.929.515-2.193 1.676-2.709 2.192.103-.516 1.161-2.365 1.677-3.225 1.032-1.16 2.477-2.812 0-.129s-3.44 6.106-3.612 7.482Z" fill="#6E6E6C"/><path d="m10.866 84.651.727.687-1.213-1.56.486.873Zm-4.644 6.321-.992-.124 1.98.276-.988-.152Zm3.612-7.482.735.679-.735-.679Zm0 .13-.747-.665-.062.07-.048.08.857.514Zm-1.677 3.224-.98-.196-.648 3.239 2.335-2.336-.707-.707Zm1.982-2.88a50.236 50.236 0 0 0-2.854 3.31A21.394 21.394 0 0 0 5.98 89.11c-.334.54-.66 1.156-.745 1.71l1.977.304c.018-.117.141-.432.469-.962.304-.49.716-1.062 1.181-1.657a48.243 48.243 0 0 1 2.732-3.167l-1.454-1.373Zm-2.924 7.132c.153-1.224 1.052-4.434 3.354-6.927l-1.47-1.357c-2.652 2.873-3.678 6.508-3.869 8.036l1.985.248Zm3.354-6.927a98.852 98.852 0 0 1 1.275-1.361c.038-.039.01-.007-.042.033-.004.003-.082.065-.196.115-.028.013-.24.114-.526.079a1 1 0 0 1-.869-.855c-.034-.247.036-.436.046-.466a.996.996 0 0 1 .109-.218c.02-.031.033-.044.007-.013-.162.2-.762.882-1.286 1.472l1.495 1.329a74.186 74.186 0 0 0 1.344-1.54c.02-.025.063-.078.1-.133a1.06 1.06 0 0 0 .12-.237c.01-.03.08-.22.046-.468a1.002 1.002 0 0 0-.87-.856c-.286-.035-.5.066-.529.079-.116.052-.197.116-.205.122-.07.054-.135.12-.153.136A100.722 100.722 0 0 0 9.1 82.813l1.47 1.357Zm-1.592-1.064c-.264.44-.665 1.13-1.016 1.781-.176.325-.343.65-.476.933-.117.25-.256.565-.308.83l1.96.391c0 .006.032-.103.158-.372.111-.235.26-.523.426-.833.333-.617.718-1.28.97-1.701l-1.714-1.03Zm-.113 4.446c.513-.512 1.692-1.584 2.488-2.026l-.972-1.748c-1.061.59-2.41 1.84-2.93 2.36l1.414 1.414Z" fill="#6E6E6C" mask="url(#i)"/><path d="M8.631 88.883c.368-.351.696-.656.989-.92-.51.816-1.04 1.69-1.525 2.526a40.8 40.8 0 0 0-1.11 2.03c.122-1.189.551-2.59 1.646-3.636Z" fill="#575958" stroke="#575958"/><mask id="j" fill="#fff"><path d="M13.833 86.973c-1.978 1.978-5.728 7.688-4.902 14.705-.73-3.482-.774-11.3 4.902-14.705Z"/></mask><path d="M13.833 86.973c-1.978 1.978-5.728 7.688-4.902 14.705-.73-3.482-.774-11.3 4.902-14.705Z" fill="#6F6F6F"/><path d="m13.833 86.973.707.707-1.222-1.564.515.857ZM8.93 101.678l-.979.206 1.972-.322-.993.116Zm4.195-15.412c-2.12 2.12-6.06 8.117-5.188 15.529l1.986-.233c-.779-6.622 2.78-12.046 4.616-13.882l-1.414-1.414ZM9.91 101.473c-.342-1.628-.526-4.309.047-6.965.571-2.649 1.867-5.163 4.39-6.677l-1.029-1.715c-3.152 1.891-4.673 4.988-5.316 7.97-.642 2.974-.439 5.943-.05 7.798l1.958-.411Z" fill="#6F6F6F" mask="url(#j)"/><path d="M13.962 88.521c-1.204 1.978-3.715 6.501-4.128 8.772.129-2.322 1.135-7.327 4.128-8.772Z" fill="#545655" stroke="#545655"/><path d="M12.8 92.391c-1.106 3.976-2.119 13.571 2.17 21.431.25.433.478.822.669 1.143-.236-.376-.46-.757-.67-1.143-1.158-2.005-2.776-4.937-3.2-6.21-.52-1.562.808 3.348 2.018 5.978.294.52.573.984.82 1.375-.249-.249-.531-.747-.82-1.375-1.91-3.373-4.529-9.139-4.082-13.072.516-4.541 2.279-7.31 3.096-8.127Z" fill="#5F5F5F"/><path d="M12.8 92.391c-1.16 4.17-2.218 14.525 2.839 22.574-1.075-1.806-3.354-5.805-3.87-7.353-.645-1.935 1.548 6.063 2.838 7.353-1.85-2.924-5.418-9.907-4.902-14.447.516-4.541 2.279-7.31 3.096-8.127Z" stroke="#5F5F5F"/><path d="M14.349 109.418c-2.374-9.803.043-17.156 1.548-19.607-1.651.722-2.666 2.623-2.967 3.483-1.651 5.263.258 12.942 1.419 16.124Z" fill="#5B5B5B" stroke="#5B5B5B"/><path d="M15.745 108.823c-.266-1.66-.476-3.066-.585-4.368.535 4 1.405 7.189 2.567 9.776-.905-1.536-1.651-3.353-1.982-5.408Z" fill="#D8D8D8" stroke="#D8D8D8"/><path d="M17.634 96.699c-.607 2.467-.935 5.485-.636 8.943a26.487 26.487 0 0 1-.358-2.504c-.215-2.281-.138-4.74.427-7.22-.02.296-.02.568.011.797l.556-.016Z" fill="#B7B7B5" stroke="#B7B7B5"/><path d="M8.544 92.262c-.516 2.322-1.393 7.507-.774 9.675-.688-2.322-1.496-7.508.774-9.675Z" fill="#6C6C6C" stroke="#6C6C6C"/><path d="M20.372 93.608c-.14.377-.279.766-.408 1.157-.493 1.488-.898 3.098-.825 4.236l.929.002c-.133.383-.261.774-.385 1.171a33.916 33.916 0 0 0-.997 4.022c-.096-1.656-.09-3.334.07-4.924.221-2.182.727-4.145 1.616-5.664Z" fill="#71716F" stroke="#71716F"/><path d="M22.809 108.478c-.297-3.164.202-6.507 2.195-9.533-1.283 3.253-2.269 7.763-1.632 12.718a20.53 20.53 0 0 1-.563-3.185Z" fill="#ABABAB" stroke="#ABABAB"/><mask id="k" fill="#fff"><path d="M12.414 85.941c-.946 1.72-2.993 5.289-3.612 5.805-.774.645 1.29-4.257 3.612-5.805Z"/></mask><path d="M12.414 85.941c-.946 1.72-2.993 5.289-3.612 5.805-.774.645 1.29-4.257 3.612-5.805Z" fill="#464646"/><path d="m12.414 85.941.876.482-1.43-1.314.554.832Zm-3.612 5.805-.64-.768.64.768Zm2.736-6.287a103.77 103.77 0 0 1-1.909 3.32c-.35.579-.683 1.11-.963 1.524-.14.207-.26.375-.359.502-.11.14-.155.18-.145.173l1.28 1.536c.165-.137.319-.32.443-.48.136-.175.284-.383.438-.61a38.49 38.49 0 0 0 1.019-1.612c.716-1.186 1.47-2.521 1.948-3.389l-1.752-.964Zm-3.376 5.519a.653.653 0 0 1 .12-.078.903.903 0 0 1 .44-.095.96.96 0 0 1 .703.342.912.912 0 0 1 .2.427c.024.139.001.224.009.183.002-.016.012-.06.035-.134.096-.31.323-.85.662-1.489.695-1.31 1.695-2.732 2.638-3.36l-1.11-1.665c-1.38.92-2.572 2.723-3.295 4.089-.37.698-.66 1.36-.806 1.837a3.184 3.184 0 0 0-.094.372 1.48 1.48 0 0 0-.01.51c.02.11.071.316.236.512.194.233.474.365.768.375.248.007.439-.074.536-.124.106-.054.19-.118.248-.166l-1.28-1.536Z" fill="#464646" mask="url(#k)"/><path d="M26.743 99.755c.174-.4.352-.792.532-1.173a48.66 48.66 0 0 0-1.124 6.309c-.326 2.99-.37 6.203.14 9.274a25.147 25.147 0 0 1-.303-.769c-.79-2.109-1.356-4.483-1.208-6.653.15-2.186.973-4.705 1.963-6.987Z" fill="#9D9D9D" stroke="#9D9D9D"/><path d="M29.446 114.249a28.242 28.242 0 0 1 .075-14.217 49.547 49.547 0 0 0-.602 6.934c-.035 2.365.112 4.832.527 7.283Z" fill="#E2E4E3" stroke="#E2E4E3"/><path d="M21.48 111.603c-.83-3.331-.875-7.076.553-10.998-1.053 4.711-.954 10.853 2.248 17.532-1.178-1.902-2.197-4.112-2.8-6.534Z" fill="#E6E6E6" stroke="#E6E6E6"/><path d="M10.737 75.364c.258 1.419 1.11 4.463 2.45 5.289-.945-.387-2.76-1.987-2.45-5.29Z" fill="#393B3A" stroke="#393B3A"/><path d="M54.337 82.459c-2.27-.826-6.966-5.418-9.03-7.611 5.418 4.644 7.998 6.579 11.48 7.094 2.787.413 4.516-2.235 5.032-3.611l-.646 1.806c-1.031 2.322-3.998 3.353-6.836 2.322Z" fill="#BAB6B7" stroke="#BAB6B7"/><path d="M44.538 80.2c.509.62 1.134 1.434 1.543 2.08-.309-.25-.666-.615-1.057-1.082-.55-.656-1.133-1.469-1.705-2.336-.065-.098-.13-.197-.193-.296l1.412 1.635Zm2.294 2.507h.003-.003Z" fill="#585657" stroke="#585657"/><path d="M38.084 75.106c1.118 1.892 3.921 5.908 6.191 6.837-1.59-2.15-5.056-6.528-6.191-6.837Z" fill="#444442" stroke="#444442"/><path d="M17.058 84.135c4.643.31 9.674-5.89 11.61-9.03h-1.29c-.388 0-3.87 3.226-6.192 5.419-1.858 1.754-4.042 2.106-4.902 2.064.774-.258 4.128-1.935 4.773-2.838.516-.723 4.17-3.827 5.933-5.29-2.967.646-6.836 5.16-10.706 6.838-3.096 1.341-6.02-1.591-7.095-3.225 2.193 4.386 2.064 5.675 7.869 6.062Z" fill="#9D9AA1"/><path d="M22.733 83.877c.413-.31 4.73-5.546 6.837-8.126l-.387-.645c-.129.774-6.966 9.158-6.45 8.771Z" fill="#1A1A1A"/><path d="M19.509 48.807c-3.47 0-7.33.491-9.304.81v-5.17a834.18 834.18 0 0 1 2.37-3.027l.242-.304.07-.085.01-.013a.522.522 0 0 0 .144-.277.906.906 0 0 0 .015-.107c.005-.06.007-.13.007-.206 0-.153-.004-.361-.013-.607a89.385 89.385 0 0 0-.098-1.902 340.868 340.868 0 0 0-.297-4.386v-.004c-.114-1.395.652-4.601 4.911-5.666 2.181-.545 4.883-.478 7.404-.157 2.51.32 4.795.887 6.122 1.309 1.121.372 4.02.812 7.03-.263.55-.196 1.078-.392 1.593-.583 2.894-1.073 5.423-2.011 9.617-2.226 2.534-.13 4.487-.187 5.965.18.726.179 1.316.456 1.794.862.476.405.867.96 1.165 1.734 1.237 3.217.876 5.933.359 9.421-.261 1.765-.13 2.717.367 3.387.231.311.522.531.775.722l.013.01.002.002c.265.2.518.391.772.673a13.799 13.799 0 0 0 .404.428c.116.122.203.217.277.314.132.174.237.376.313.761.154.784.168 2.199.06 5.291-3.837-.761-12.129-1.63-18.984.253a33.32 33.32 0 0 1-2.644.396c-.486.05-.945.083-1.328.084-.403.002-.656-.032-.77-.074-.067-.025-.22-.151-.404-.526-.17-.348-.32-.816-.446-1.346a14.8 14.8 0 0 1-.373-3.078l-1-.012c-.02.876-.16 2.18-.496 3.248-.17.536-.377.977-.618 1.275-.234.29-.466.407-.708.407-.51 0-1.347-.091-2.424-.237-.659-.09-1.39-.196-2.173-.31-.49-.072-1-.147-1.524-.222-2.706-.386-5.77-.779-8.197-.779Zm10.879 12.137a19.821 19.821 0 0 0 1.426-2.886c-.095 2.152-.218 4.758-.292 5.79-.048.671-.212.903-.28.966-.034.03-.052.03-.056.029-.002 0-.002 0 0 0l-.094-.04h-.103c-.606 0-1.545.149-2.464.59-.926.445-1.858 1.2-2.381 2.421-.271.632-.534.995-.804 1.246-.275.254-.585.421-1.018.63l-.161.076c-.867.414-2.013.962-3.587 2.535-2.37 2.37-3.119 5.068-3.23 6.553a9.856 9.856 0 0 0-.074.01.489.489 0 0 1-.078-.03 2.117 2.117 0 0 1-.35-.219 9.422 9.422 0 0 1-1.006-.904 29.718 29.718 0 0 1-1.998-2.27l-.508-.642c-.595-5.556-2.022-9.081-2.867-10.42.01-3.615.343-7.537.565-9.575l.039.017c.347 1.853 1.27 5.684 2.589 8.019.424.75 1.256 1.243 2.196 1.577.955.338 2.11.544 3.305.66 2.39.235 5.024.123 6.723-.051l.055-.006.052-.017c1.874-.625 3.34-2.31 4.4-4.06Zm-16.571-7.139v-.009l-.001-.009c-.03-.43.127-.898.377-1.336a4.5 4.5 0 0 1 .635-.854l3.163-.243c4.46-.204 7.39.054 9.23.448.921.197 1.556.425 1.968.637.362.186.505.334.552.397.581 2.837-.264 5.16-1.378 6.837a10.791 10.791 0 0 1-1.73 2.013c-.553.5-.98.77-1.13.835-.145.062-.554.147-1.207.21-.628.06-1.42.096-2.284.088-1.736-.016-3.708-.208-5.183-.7-.47-.157-.904-.544-1.294-1.152-.389-.604-.706-1.384-.958-2.242-.503-1.716-.718-3.659-.76-4.92Z" fill="#FDFDFD" stroke="#FDFDFD"/><path d="M30.832 15.277a18.614 18.614 0 0 0-.143-.084c2.167.944 3.716 2.894 4.781 5.08.36.74.661 1.498.91 2.243-.938-1.885-2.04-3.887-3.056-5.241-.526-.701-1.431-1.374-2.492-1.998Z" fill="#52514F" stroke="#52514F"/><path d="M25.055 82.716c1.135-.619 5.375-5.245 7.353-7.481-.043-.215-.31-.465-1.032.258-.722.722-4.515 5.117-6.32 7.223Z" fill="#474747"/><path d="M29.312 80.266c.62-1.136 3.096-3.913 4.257-5.16 0 .129-.026.49-.13.903-.102.413-2.794 3.01-4.127 4.257Z" fill="#1E1E20"/><path d="M31.376 79.363c.62-.31 2.924-2.967 3.999-4.257 0 .258-.155 1.058-.774 2.193-.62 1.135-2.236 2.365-2.967 2.838-.344-.13-.877-.465-.258-.774Z" fill="#3F4140" stroke="#3F4140"/><path d="m63.366 65.173-.258-5.03c1.42 0 1.935.129 2.322 1.806.31 1.341-1.247 2.708-2.064 3.224Z" fill="#EEEEEC" stroke="#EEEEEC"/><path d="m63.237 55.24.13 3.226c.412-2.89 2.192-3.741 3.095-3.741 1.342 0 1.85 1.978 1.935 2.967-.688-.43-2.193-1.239-2.709-1.032-.516.206-.817 1.204-.903 1.677.817.258 2.348 1.367 1.935 3.74-.412 2.374-2.322 4.257-3.225 4.902-.103 2.374.387 2.795.645 2.71 4.386-2.323 7.095-15.351 3.741-16.512-2.683-.929-4.214.989-4.644 2.064Z" fill="#FDF8FE"/><path d="M6.738 62.206c-.206-1.857 1.118-2.321 1.806-2.321l-.387 5.675c-.387-.344-1.212-1.496-1.419-3.354Z" fill="#EFEAEE" stroke="#EFEAEE"/><path d="M31.118 39.633c.413.103.43-.215.387-.387.258 0-2.838-1.032-4.257-1.29-1.419-.258-5.675-.258-6.063 0a.574.574 0 0 0-.258.645c.56-.086 2.168-.233 4.128-.13 2.451.13 5.547 1.033 6.063 1.162Z" fill="#2A2A28" stroke="#2A2A28"/><path d="M41.18 48.92c-.93-2.27.473-3.87 1.29-4.386v1.161c.619-1.032 1.633-1.548 2.063-1.677 2.107-.473 7.043-1.238 9.933-.516 2.89.723 3.87 4.257 3.999 5.934-.602-.258-2.039-.851-2.967-1.16-1.161-.388-3.741-.259-8.385.902-3.715.929-5.504.215-5.934-.258Z" fill="#030303" stroke="#030303"/><path d="M38.6 80.266c-1.032-.723-1.892-2.193-2.193-2.838-.207 1.135-2.064 2.537-2.967 3.096.722 0 1.935.602 2.45.903.723-.413 2.108-.946 2.71-1.161Z" fill="#fff"/><path d="M48.274 63.496c-4.334-.103-5.934-5.89-6.191-8.771-.297-1.755 1.08-2.709 1.805-2.967 3.2-1.548 11.05-.903 14.577-.387 1.032 3.74-1.032 8.772-1.935 10.32-.903 1.547-2.838 1.934-8.256 1.805Z" fill="#FEFEFE"/><path d="M40.019 56.273c.103-.516.387-.301.516-.13.43 1.463 1.418 4.541 1.934 5.16.645.775 2.838 3.612 6.837 3.483 3.999-.129 6.966-.387 8.256-1.935 1.29-1.547 2.45-7.352 2.58-8.384h1.418l.387 9.674c-.989 2.451-2.915 8.024-2.708 10.707l-3.612 4.644c-.43.516-1.342 1.135-1.548-.516-.258-2.064-.774-4.902-3.354-6.708s-4.644-4.128-5.16-4.902-2.064-2.193-2.967-2.064a20.3 20.3 0 0 1-.11.016c.95.825 2.74 2.673 2.432 3.596-.387 1.161-.387 2.709-2.064 2.58s-2.58.258-2.967.387c-.386.129-2.192 1.935-3.095 1.806-.723-.103-1.075-.043-1.161 0-.99-.774-3.612-2.322-6.192-2.322-.774-.387-2.141-1.548-1.419-3.096.903-1.935 2.064-2.58 3.225-2.322l.774.903c.344-.989 1.032-2.992 1.032-3.096 0-.103.344-6.234.516-9.287 0-.301.18-.929.903-1.032.903-.13 3.999-.645 4.257.645.206 1.032 1.29 8.342 1.806 11.867l.637.716c-.432-3.288-1.256-9.877-1.153-10.39Z" fill="#FDFDFD"/><path d="m41.18 66.721-.008-.058m0 0c-.432-3.288-1.256-9.877-1.153-10.39.103-.516.387-.301.516-.13.43 1.463 1.418 4.541 1.934 5.16.645.775 2.838 3.612 6.837 3.483 3.999-.129 6.966-.387 8.256-1.935 1.29-1.547 2.45-7.352 2.58-8.384h1.418l.387 9.674c-.989 2.451-2.915 8.024-2.708 10.707l-3.612 4.644c-.43.516-1.342 1.135-1.548-.516-.258-2.064-.774-4.902-3.354-6.708s-4.644-4.128-5.16-4.902-2.064-2.193-2.967-2.064c-.722.103-.387.043-.129 0 .946.817 2.76 2.683 2.451 3.612-.387 1.161-.387 2.709-2.064 2.58s-2.58.258-2.967.387c-.386.129-2.192 1.935-3.095 1.806-.723-.103-1.075-.043-1.161 0-.99-.774-3.612-2.322-6.192-2.322-.774-.387-2.141-1.548-1.419-3.096.903-1.935 2.064-2.58 3.225-2.322l.774.903c.344-.989 1.032-2.992 1.032-3.096 0-.103.344-6.234.516-9.287 0-.301.18-.929.903-1.032.903-.13 3.999-.645 4.257.645.206 1.032 1.29 8.342 1.806 11.867l.637.716Z" stroke="#FDFDFD"/><path d="m42.212 71.494 2.708-3.096c.13.387-.103 1.264-.516 2.193-.412.929-1.16 1.032-2.193.903Z" fill="#AFB3BC" stroke="#AFB3BC"/><path d="M31.376 69.688c.62-.413 1.462-.172 1.806 0-1.032.103-1.29.559-1.29.774l1.032 1.806c-1.032-.473-3.148-1.47-3.354-1.677-.258-.258-1.032-1.16-.387-1.548.645-.387.774 0 1.032.516s.387.645 1.161.129Z" fill="#A8A7AC" stroke="#A8A7AC"/><path d="M37.052 70.591c1.96 0 2.967-3.182 3.224-4.773.344.86.542 3.07-1.418 5.031-1.961 1.96-4.601.043-5.676-1.16.473.3 1.909.902 3.87.902Z" fill="#88878C" stroke="#88878C"/><path d="M29.312 72.397c-1.238-.929-1.892-2.279-2.064-2.838.086-.129.18-.284-.129.13-.387.515-2.193 1.547-4.901 3.482-2.168 1.548-2.365 3.74-2.193 4.644 3.302-3.715 7.567-5.16 9.287-5.418Z" fill="#fff"/><path d="M48.145 52.532c-1.341.31-2.795 1.763-3.354 2.45h2.451c1.548 2.065 3.483 2.194 4.773 2.065 1.032-.103 1.462-.817 1.548-1.161l2.322-.13c-.258-.257-1.11-1.031-2.451-2.063a6.26 6.26 0 0 0-5.289-1.161Z" fill="#030504" stroke="#030504"/><path d="M20.54 52.661c-2.063.62-3.697 2.408-4.256 3.225.688.043 2.115.129 2.322.129.258 0 1.548.903 3.095.903 1.239 0 2.838-1.204 3.483-1.806.723 0 1.505-.43 1.806-.645-.258-.516-3.87-2.58-6.45-1.806Z" fill="#010101" stroke="#010101"/><path d="M42.985 72.526c1.032-.103 2.236-1.677 2.71-2.45 5.056 2.992 6.75 7.18 6.965 8.9-3.509-4.54-7.912-6.192-9.675-6.45Z" fill="#F6FBFF" stroke="#F6FBFF"/><path d="M34.6 82.716c-1.444-.722-3.955.13-5.03.645.946.645 3.535 1.935 6.32 1.935 2.787 0 4.946-1.376 5.676-2.064-3.095-1.341-4.385-.903-4.643-.516H34.6Z" fill="#F9F9FB" stroke="#F9F9FB"/><path d="M26.345 91.101c-3.483-1.29-4.386-6.192-3.999-6.32.303-.102 4.001-.786 5.934-1.138 2.58 1.83 4.257 2.298 7.998 2.427 2.992.104 5.805-1.59 6.836-2.45.344 0 1.729.18 4.515.902 2.786.723.387 3.741-1.16 5.16-4.645 3.818-7.44.473-8.256-1.677l1.29-1.806c-3.612 1.29-7.869 0-7.869.258 0 .207 1.118 1.29 1.677 1.806l-.13.774c-.128 1.806-3.353 3.354-6.836 2.064Z" fill="#FCFDFF"/><path d="m28.41 83.62-.13.023m0 0c-1.933.352-5.63 1.036-5.934 1.137-.387.13.516 5.031 4 6.321 3.482 1.29 6.707-.258 6.836-2.064l.129-.774c-.56-.516-1.677-1.6-1.677-1.806 0-.258 4.257 1.032 7.869-.258l-1.29 1.806c.817 2.15 3.611 5.495 8.255 1.677 1.548-1.419 3.947-4.437 1.161-5.16-2.786-.722-4.17-.903-4.515-.903-1.031.86-3.844 2.555-6.836 2.451-3.741-.129-5.418-.598-7.998-2.427Z" stroke="#FCFDFF"/><path d="M42.212 70.85c.619-.104.257-.818 0-1.162-1.961.31-2.365.387-2.322.387-3.354 3.87-6.321.258-6.58 0-.257-.258-1.16.13-1.16.387 0 .258 1.29 1.032 2.58 1.806s2.322.516 2.838.387c.413-.103 1.978-1.161 2.709-1.677.386 0 1.315-.026 1.934-.129Z" fill="#090B06" stroke="#090B06"/><path d="M20.283 55.24c-.104-.309.473-.902.774-1.16.928-.103.73.387.516.645-.387.3-1.187.825-1.29.516Z" fill="#EAE5EB"/><circle cx="50.854" cy="54.983" r=".5" fill="#ECE5ED" stroke="#ECE5ED" stroke-width=".29"/><path d="M30.086 49.05c1.754-3.097-.043-4.3-1.16-4.516.722.31.816 2.021.773 2.838-.31-1.754-1.505-2.623-2.064-2.838-2.064-1.135-8.083-1.075-10.835-.903-2.451 1.42-3.87 5.676-3.483 5.676s.774-.387 2.322-1.16c1.548-.775 2.322 0 8.255 1.031 4.747.826 6.106.258 6.192-.129Z" fill="#030303" stroke="#030303"/><path d="M14.736 32.28c.258 1.419.748 5.598.645 10.964-.301-2.623-.852-8.487-.645-10.964Z" fill="#737373" stroke="#737373"/><path d="M56.143 31.119c-.387 2.02-1.161 6.862-1.161 10.062.602-2.021 1.677-6.863 1.16-10.062Z" fill="#50504E" stroke="#50504E"/><path d="M8.673 58.079h-.387l-.903-1.677c-1.548-2.064-2.967-1.72-3.483-1.161-.412.447-.43 1.734-.387 2.322.043.086.336.051 1.161-.774.826-.826 2.15.516 2.71 1.29-1.24.206-1.893 1.548-2.065 2.193-.825 2.786 1.376 5.632 2.58 6.707v2.967c-2.967-2.064-4.386-5.934-5.16-11.48-.619-4.438.86-5.633 1.677-5.676 3.2-.206 4.171 1.462 4.257 2.322v2.967Z" fill="#F8F8F8"/><path d="m21.96 84.651.128-.774c-4.901 1.935-5.288 1.42-7.997.774-2.167-.516-4.085-3.998-4.773-5.675.13 3.096 3.225 6.32 6.32 6.836 2.478.413 5.246-.602 6.321-1.16Z" fill="#8F8D8E"/><path d="M24.54 82.459c.412-.413 4.127-4.472 5.933-6.45v-.13h-.387l-5.547 6.58Z" fill="#1A1A1A"/><path d="m37.18 74.719.06.227c.461 1.515 2.443 4.311 3.424 5.578-1.772-.886-2.98-3.953-3.424-5.578a2.817 2.817 0 0 1-.06-.227Z" fill="#171717"/><path d="M37.18 74.719c.388 1.548 1.626 4.876 3.484 5.805-1.032-1.333-3.174-4.36-3.483-5.805Z" stroke="#171717"/><path d="M47.5 81.942c-2.167-3.198-5.03-6.32-6.191-7.481l1.805.258c.301.43 1.523 2.167 4 5.676 3.095 4.385 6.062 4.772 9.158 4.772 2.476 0 5.503-3.87 6.707-5.804-.645 2.192-3.353 5.417-5.675 6.191-2.322.774-7.095.387-9.804-3.612Z" fill="#525252" stroke="#525252"/><path d="M50.209 82.072c-1.032-.904-5.03-6.321-6.45-7.74 1.935 1.72 6.14 5.52 7.482 6.966 1.677 1.805 6.063 3.611 8.772.644 2.167-2.373 2.278-5.546 2.063-6.836.473 1.935.439 6.295-3.482 8.255-3.922 1.961-7.353-.258-8.385-1.29Z" fill="#8F918E" stroke="#8F918E"/><path d="M17.058 79.75c-1.961.103-2.967-1.935-3.225-2.967 0 .602.129 2.012.645 2.838.516.825 1.935.43 2.58.129Z" fill="#454344" stroke="#454344"/><path d="M59.497 75.235c.129.989-.052 3.38-1.806 5.03 1.29-1.203 3.457-3.895 1.806-5.03Z" fill="#646464" stroke="#646464"/><path d="M44.045 112.021c-.302 1.398-.89 2.931-1.578 4.402.17-.674.328-1.353.475-2.015.43-1.947.767-3.805.984-5.001.083-.458.148-.82.195-1.052.09-.453.095-1.14.059-1.909a42.781 42.781 0 0 0-.227-2.647 93.576 93.576 0 0 0-.05-.429c.095.437.178.888.249 1.351.364 2.374.393 4.988-.107 7.3Z" fill="#DEDEDC" stroke="#DEDEDC"/><path d="M48.537 114.944c-.118.206-.24.409-.362.607 2.116-5.274 2.517-9.874 2.11-13.526.347 2.166.43 4.522.328 6.725-.098 2.106-.98 4.293-2.076 6.194Z" fill="#D1D1D1" stroke="#D1D1D1"/><path d="M12.636 29.801c-1.564-.245-2.872-.912-3.948-1.793l.283.16a19.14 19.14 0 0 0 3.709 1.55 5.15 5.15 0 0 0-.044.083Z" fill="#FBF7F8" stroke="#FBF7F8"/><path d="M23.25 17.833c-7.018-2.993-9.116-5.031-9.288-5.676 3.483 2.064 1.935 1.29 8.771 3.74 5.47 1.961 7.783 8.3 8.256 11.223-1.032-5.056-5.59-8.298-7.74-9.287Z" fill="#6C6A6D" stroke="#6C6A6D"/><path d="M48.403 10.61c3.612 4.127 4.257 10.405 4.128 13.027-.774-8.513-5.547-15.22-12.77-17.414-5.78-1.754-14.104-.387-17.544.516 10.965-4.514 21.671-1.29 26.186 3.87Z" fill="#A4A4A2" stroke="#A4A4A2"/><path d="M48.92 18.607c-1.55-6.398-8.3-10.407-11.482-11.61 1.462.903 5.03 3.457 7.61 6.45 2.58 2.993 3.655 8.384 3.87 10.706.62-1.65.258-4.385 0-5.546Z" fill="#3C3C3C" stroke="#3C3C3C"/><path d="M39.374 12.673c3.508 2.786 4.815 8.47 5.03 10.964-.129-1.332-1.16-5.03-4.257-9.158-3.095-4.128-7.825-5.246-9.803-5.289-6.316 0-10.437-.392-12.706-.757-1.041-.114-1.634-.277-1.87-.404.334.112.95.256 1.87.404 1.425.156 3.69.222 7.03-.017 7.224-.516 10.32.774 14.706 4.257Z" fill="#615F61"/><path d="M44.404 23.637c-.215-2.494-1.522-8.178-5.03-10.964C34.988 9.19 31.892 7.9 24.668 8.416c-5.779.413-8.341-.086-8.9-.387 1.16.387 5.701 1.161 14.576 1.161 1.978.043 6.708 1.161 9.803 5.289 3.096 4.128 4.128 7.826 4.257 9.158Z" stroke="#615F61"/><path d="m35.23 11.285.009.006c2.786 1.741 4.643 4.31 5.833 6.835.078.166.153.33.225.495a20.917 20.917 0 0 0-1.196-1.855c-1.393-1.924-2.982-3.377-4.938-4.877-1.099-.842-2.609-1.46-4.227-1.91l.187.03c2.218.37 3.566.922 4.107 1.276Zm-1.483 1.731c.086.036.166.07.242.104 3.417 1.918 5.254 4.774 6.167 7.307a29.123 29.123 0 0 0-.66-1.255c-1.178-2.108-2.737-4.244-4.618-5.496a11.864 11.864 0 0 0-1.131-.66Z" fill="#9EA39C" stroke="#9EA39C"/><path d="M35.09 16.922a14.066 14.066 0 0 0-3.611-2.677c.275.13.548.269.82.416a9.943 9.943 0 0 1 2.791 2.261Z" fill="#949492" stroke="#949492"/><path d="M37.18 26.991a26.106 26.106 0 0 0-.503-1.945c-.653-1.7-2.01-3.965-4.527-5.923-3.316-2.58-10.03-5.761-13.941-7.455a13.87 13.87 0 0 1-1.28-.543c.379.157.809.34 1.28.543 3.196 1.205 9.098 2.685 12.78 4.359 2.782 1.264 4.72 5.77 5.688 9.019.31.808.462 1.488.504 1.945Z" fill="#454344"/><path d="M37.18 26.991c-.644-3.01-2.785-9.416-6.19-10.964-4.258-1.935-11.481-3.612-14.061-4.902 3.526 1.462 11.506 5.108 15.221 7.998 3.715 2.89 4.902 6.45 5.03 7.868Z" stroke="#454344"/><path fill-rule="evenodd" clip-rule="evenodd" d="M220 128V61h38.5c8 0 16 8 16 18.5 0 8-4.667 12-6.5 13 3.667.833 9 6 9 18.5s-10.5 17-17.5 17H220Zm9.5-9.5v-17c2.4-2 8-2.5 10.5-2.5h19c7 0 8.5 6 8.5 10 0 4.5-4 9.5-9.5 9.5h-28.5Zm0-27v-21h27c3 0 7.358 2.082 8 8.5.5 5-4 9.5-7.5 9.5l-20.5.5c-1.5 0-5 .1-7 2.5Zm-66-32h11l32 68H196l-4-8.5h-19c-3.5 0-24 1.3-24 8.5h-10L167.5 68l-4-8.5ZM172 80l15 28.5c-9.333 0-28.4.7-30 3.5l15-32Z" fill="#010101"/><path d="m174.5 59.5.452-.213-.135-.287h-.317v.5Zm-11 0V59h-.788l.336.713.452-.213Zm43 68v.5h.788l-.336-.713-.452.213Zm-10.5 0-.452.213.135.287H196v-.5Zm-4-8.5.452-.213-.135-.287H192v.5Zm-43 8.5v.5h.5v-.5h-.5Zm-10 0-.451-.216-.343.716H139v-.5ZM167.5 68l.451.216.103-.214-.102-.215-.452.213Zm19.5 40.5v.5h.828l-.385-.733-.443.233ZM172 80l.443-.233-.469-.89-.427.91L172 80Zm-15 32-.453-.212.887.46L157 112Zm17.5-53h-11v1h11v-1Zm32.452 68.287-32-68-.904.426 32 68 .904-.426ZM196 128h10.5v-1H196v1Zm-4.452-8.787 4 8.5.904-.426-4-8.5-.904.426ZM173 119.5h19v-1h-19v1Zm-23.5 8c0-1.527 1.081-2.827 3.007-3.932 1.911-1.097 4.525-1.921 7.288-2.53 5.52-1.215 11.483-1.538 13.205-1.538v-1c-1.778 0-7.815.327-13.42 1.562-2.799.616-5.529 1.467-7.571 2.639-2.028 1.164-3.509 2.726-3.509 4.799h1Zm-10.5.5h10v-1h-10v1Zm28.049-60.216-28.5 59.5.902.432 28.5-59.5-.902-.432Zm-4.001-8.071 4 8.5.904-.426-4-8.5-.904.426Zm24.395 48.554-15-28.5-.885.466 15 28.5.885-.466Zm-30.009 3.981c.111-.194.444-.459 1.123-.74.653-.271 1.532-.52 2.597-.747 2.128-.453 4.929-.801 7.989-1.063 6.114-.523 13.199-.698 17.857-.698v-1c-4.675 0-11.79.175-17.943.702-3.074.263-5.923.615-8.111 1.081-1.093.232-2.039.497-2.772.801-.706.292-1.319.662-1.608 1.168l.868.496Zm14.113-32.46-15 32 .906.424 15-32-.906-.424Z" fill="#253B6E"/><path d="M87 128V60.5h9.5V119h38v9H87ZM247 8h-6.5c3.6 11.2 11.833 20.333 15.5 23.5v18h6v-18c3.6-2 11.833-16.5 15.5-23.5h-7c-5.6 12-10.333 17-12 18-3.6-1.6-9.167-12.667-11.5-18Zm-39 41.5V8h6.5v35.5h23v6H208Zm-36.5 0V8h6.5v35.5h23v6h-29.5Zm-41.5 0V8h29.5v6H136v13c2.8-2.8 12.5-2.167 17-1.5v6c-12.4-.8-16.5.333-17 1v11h26v6h-32ZM99.5 8l3 6h9c0 6.333.5 18.5 0 22-.515 3.603-3.5 8.5-9.5 8.5S91.833 41.833 89.5 40L87 46c3.5 2.5 7 4 14.5 4.5 8.994.6 15.5-8 16-14.5V8h-18Z" fill="#010101" stroke="#253B6E"/><defs><linearGradient id="b" x1="48.613" y1="2.095" x2="48.613" y2="23.766" gradientUnits="userSpaceOnUse"><stop stop-color="#A5A7A6"/><stop offset=".425" stop-color="#4A4A4A"/></linearGradient><linearGradient id="c" x1="53.867" y1="4.804" x2="53.867" y2="24.282" gradientUnits="userSpaceOnUse"><stop stop-color="#DEDEDE"/><stop offset=".57" stop-color="#2A2A2A"/></linearGradient><linearGradient id="d" x1="34.594" y1="1.889" x2="34.594" y2="23.379" gradientUnits="userSpaceOnUse"><stop stop-color="#E8E8E8"/><stop offset=".23" stop-color="#4A4A4A"/></linearGradient></defs></svg>