<svg width="273" height="494" fill="none" xmlns="http://www.w3.org/2000/svg"><path d="M22.242 197.246c-6.166-20.666-15.7-68.5-4.5-94.5-3.666-4.5-11.1-19-11.5-41l3 11.5 1.5-36.5 2.5 11.5c4.334-8.5 14.8-26.8 22-32-.666 5.167.6 17.4 11 25-2.333-3.333-7-10.9-7-14.5 2 3.167 7 9.3 11 8.5 4-.8 0-8.666-2.5-12.5 2.167 2 6.8 6 8 6 1.324 0-2.024-5.45-4.548-7.42-1.337-.57-1.964-.985-.952-.58.294.118.616.318.952.58 1.965.84 5.465 2.015 7.548 1.42 3.5-1 24.5-14.5 60-20s57.5 3 74 11.5 44 31.5 39 64.5c11 6.167 32.4 26.8 30 60-2.4 33.2-5.666 52.5-7 58 8.334-.166 22.9 7.2 14.5 38-8.4 30.8-18.833 38.5-23 38.5l2 26c.834 10 3.3 31.6 6.5 38 4 8 6.5 53.5 6.5 58s-4-23.5-6.5-26.5c.834 13.834.1 45-9.5 59a825.017 825.017 0 0 1-19.211 26.819 65.432 65.432 0 0 1-2.789 3.681 368.56 368.56 0 0 0 2.789-3.681c5.58-7.885 13.211-21.639 13.211-33.819-5.5 13.834-20.9 43.8-38.5 53 4.834-5.5 14.7-17.8 15.5-23-7.666 10.5-26.7 32.2-41.5 35 2.834-1.333 8.5-4.3 8.5-5.5 0-1.5 0-4.5 3-8.5s-21 20-34 19l1.5-3.5c-5.333 2.167-17 6.4-21 6-4-.4-19-6.166-26-9 1.948 2.207 5.958 6.073 9.337 7.485 2.585.333 3.739.396 2.663.515-.795.089-1.704-.114-2.663-.515-8.223-1.061-30.924-4.866-42.337-21.985-.166 2.667 1.7 9.3 10.5 14.5-7.5-4.166-25.7-16.9-38.5-34.5 1.815 5.334 7.756 17.2 17 22-5.666-.666-20.3-11.2-33.5-48 .667 6.667 3.3 21.6 8.5 28-4.333-3.833-14.5-17.9-20.5-43.5v-31.5c-1.5 5.5-4.4 17.5-4 21.5-1.666-11-2.6-39.5 7-65.5 1.5-3.5 4.5-14.9 4.5-32.5s2.334-24 3.5-25c-7-3.666-22.1-18.7-26.5-49.5-4.4-30.8 11.834-31.833 20.5-28.5Z" fill="#000" stroke="#000"/><path d="M171.268 64.404c4.355 13.066 1.675 21.52-.957 25.336 1.409-5.285 2.105-9.17 2.094-12.795-.013-4.107-.934-7.843-2.691-12.864l-.016-.045-.024-.042c-2.602-4.448-7.524-11.479-13.856-18.154-6.327-6.67-14.099-13.025-22.404-16.063-8.271-3.026-19.039-4.404-29.109-4.905a201.625 201.625 0 0 0-20.236.035c33.306-8.75 55.704-1.247 62.888 3.75l.023.016.025.014c27.681 14.905 35.225 42.83 35.804 58.864a91.37 91.37 0 0 0-.873-3.195c-1.354-4.644-3.612-11.285-7.23-20.296-7.276-18.125-21.15-29.372-27.221-32.75l-.535.842c5.955 4.3 19.164 16.79 24.318 32.252Z" fill="#767573" stroke="#767573"/><path d="M157.242 26.246c35.6 20.4 37.5 49.834 34 62-1-7.5 0-13-3.5-22.5s-3.5-12.5-19.5-28.5c-12.36-12.36-34.418-17.634-44.923-18.882 14.802 1.689 28.716 5.93 33.923 7.882Z" fill="#AFADAE"/><path d="M191.242 88.246c3.5-12.166 1.6-41.6-34-62-5.333-2-19.8-6.4-35-8 10 1 33.2 6.2 46 19 16 16 16 19 19.5 28.5s2.5 15 3.5 22.5Z" stroke="#AFADAE"/><path d="M184.107 47.656a36.546 36.546 0 0 1 1.725 4.07 38.379 38.379 0 0 0-2.03-2.925c-1.731-2.29-3.959-4.878-6.354-7.492-3.917-4.277-8.3-8.64-11.73-11.915 9.923 4.827 15.49 12.407 18.389 18.262Z" fill="#636363" stroke="#636363"/><path d="M157.242 5.246c12.5 2.834 40 14.2 50 37 9.376 21.377 6.885 38.271 4.064 45.242a60.595 60.595 0 0 1-.064 1.758l-.5-.5c.188-.374.377-.794.564-1.258.241-10.545-1.625-32.318-11.064-47.742-10-16.34-32.833-29.808-43-34.5Z" fill="url(#a)"/><path d="M220.742 65.746c.8-12-11-27-17-33 3.834 6 12 20.3 14 29.5s-.5 20.167-2 24.5c1.334-2 4.2-9 5-21Z" fill="#303030" stroke="#303030"/><path d="M220.242 53.246c-5.6-18-26.333-32.5-36-37.5 13.334 5.667 40.6 22.4 43 44 2.4 21.6-8 30-13.5 31.5 5-3 13.5-15.5 6.5-38Z" fill="url(#b)"/><path d="M55.242 23.746a65.22 65.22 0 0 0 2.836-.125c11.254-2.208 51.834-17.116 67.664-18.875 18-2 39.5 6.5 46.5 10.5s21.5 17.5 31 38.5c7.6 16.8 2.5 29.667-1 34 3-12.5 1-17.5-3-31s-22-37-41-44c-15.2-5.6-31.5-5.5-47-1.5-22.385 8.666-43.196 11.736-53.164 12.375-1.543.302-2.534.366-2.836.125Z" fill="url(#c)"/><path d="M66.242 63.746c-28.4-13.2-33.833-30.166-33-37 16.5 25.5 12.5 22.5 44.5 37 25.6 11.6 34.667 31.5 36 40-5.5-12.5-12-23.5-47.5-40Z" fill="#E1E0DC" stroke="#E1E0DC"/><path d="M39.619 56.227c3.075 3.73 6.513 7.478 9.264 10.328-8.282-4.49-12.778-12.069-14.839-17.84.14.223.286.449.435.676 1.396 2.125 3.199 4.48 5.14 6.836Z" fill="#6C6C6C" stroke="#6C6C6C"/><path d="M49.909 75.775c-18.191-6.42-23.746-18.09-24.56-24.56 5.032 8.318 7.661 12.566 11.983 15.567 2.305 1.6 5.074 2.837 8.902 4.17 3.167 1.104 7.085 2.282 12.095 3.789 1.041.313 2.13.64 3.269.984 16.767 5.062 26.849 13.592 31.582 19.403-5.637-5.118-10.268-7.883-15.875-10.157-3.334-1.353-7.009-2.53-11.428-3.928l-.778-.246c-4.25-1.343-9.194-2.906-15.19-5.022Z" fill="#9F9B9C" stroke="#9F9B9C"/><path d="M57.808 83.75c-17.824-2.394-27.537-12.06-32.29-20.978 2.059 2.604 4.6 4.916 7.262 6.903 4.844 3.617 10.138 6.2 13.79 7.54l.021.008.022.006c14.398 3.857 24.433 8.465 30.576 12.08-7.505-3.348-15.504-5.058-19.381-5.558Z" fill="#777578" stroke="#777578"/><path d="M49.81 93.97c5.53 1.842 10.69 2.844 13.932 3.224v1.047c-2.862-.42-12.395-2.484-16.875-3.48C33.845 90.946 26.56 82.415 23.36 76.427c.2.212.416.436.645.67 1.86 1.897 4.7 4.52 8.917 8.034 4.867 4.056 11.098 6.914 16.887 8.84Z" fill="#70706E" stroke="#70706E"/><path d="M56.242 106.246c-30.4-1.2-40.333-32.333-41-47.5-3.6 36.8 22.834 48.667 36.5 50l4.5-2.5Z" fill="#8C8E89" stroke="#8C8E89"/><path d="M238.742 324.246v-3l14 23-14-20Z" fill="#393939" stroke="#393939"/><path d="M252.935 363.35c-2.06-6.224-13.965-26.426-20.193-36.604l9 5.5c7.92 9.051 10.435 25.498 11.193 31.104.2.605.307 1.078.307 1.396 0 1.106-.06.43-.307-1.396Z" fill="#41413F"/><path d="M232.742 326.746c6.834 11.167 20.5 34.4 20.5 38 0 4.5-1-20.5-11.5-32.5l-9-5.5Z" stroke="#41413F"/><path d="M246.742 383.746c1.2-21.2-11.5-44.166-18-53 3 1.834 10.2 7.5 15 15.5 4.8 8 4 28.334 3 37.5Z" fill="#464646" stroke="#464646"/><path d="m225.742 334.746.109.172c.808 1.218 3.903 4.989 10.891 11.828 7.357 7.2 5.732 25.667 4 34 0-17.87-9.856-37.875-14.891-45.828a5.208 5.208 0 0 1-.109-.172Z" fill="#666867" stroke="#666867"/><path d="M235.242 392.246c1.6-15.6-10.666-44.166-17-56.5 4.834 2.834 15.5 13.9 19.5 35.5s-4.333 41.334-9 48.5c1.5-2.666 4.9-11.9 6.5-27.5Z" fill="#666867" stroke="#666867"/><path d="M229.742 386.246c-1.2-21.6-14.166-40.666-20.5-47.5l10 3c10 9.2 11.167 33.5 10.5 44.5Z" fill="#595959" stroke="#595959"/><path d="M224.736 401.324c1.819-11.516-.751-24.399-4.671-35.79-3.496-10.16-8.08-19.177-11.647-25.052 2.412 1.966 4.701 5.088 6.824 8.921 2.668 4.815 5.032 10.674 7.027 16.566 3.991 11.787 6.483 23.63 6.978 27.343.079.593.03 1.483-.15 2.647-.177 1.154-.478 2.542-.879 4.116-.804 3.148-2.004 7.008-3.415 11.171-1.461 4.313-3.145 8.941-4.841 13.425 1.619-6.245 3.305-14.041 4.774-23.347Z" fill="#3C3C3C" stroke="#3C3C3C"/><path d="M214.855 418.55c-1.626 4.803-3.54 9.453-5.481 13.666 3.923-12.788 5.368-28.794 5.368-45.47 0-9.335-2.343-18.645-5.332-26.588a148.89 148.89 0 0 1 1.982 4.306c3.866 8.766 7.101 18.494 7.852 27.325.696 8.178-1.329 17.719-4.389 26.761Z" fill="#B2B2B2" stroke="#B2B2B2"/><path d="M190.742 353.746c3.166 5.628 8.559 15.661 11.479 22.369 3.254 5.603 5.591 8.498 5.021 4.131-1.5-11.5-7.5-26.5-5.5-27.5s8.5 34.5 9 29.5c.4-4-3.166-20-5-27.5 6 4 8.167 35.667 8.5 51-2.677 7.24-6.7 18.291-8.93 24.875-.243 2.065-.591 3.668-1.07 4.625-1.134 2.268-.447-.144 1.07-4.625 1.538-13.035-1.07-44.49-1.07-48.375 0-1.067-.791-3.303-2.021-6.131-3.602-6.2-8.327-15.715-11.479-22.369Z" fill="#BCBCBA" stroke="#BCBCBA"/><path d="M198.742 396.732c-.203-6.916-3.288-14.915-7.019-22.067-2.467-4.729-5.23-9.115-7.668-12.612 6.463 6.158 15.251 14.643 17.814 17.526.409.46.817 1.45 1.184 2.958.361 1.479.662 3.37.911 5.547.498 4.354.779 9.805.903 15.299.125 5.491.094 11.014-.031 15.506-.125 4.509-.344 7.937-.586 9.268-.231 1.275-1.216 3.297-2.577 5.575-1.349 2.255-3.026 4.694-4.581 6.778-1.204 1.613-2.324 2.998-3.153 3.917.69-1.621 1.333-4.144 1.912-7.229.652-3.471 1.232-7.704 1.701-12.276.939-9.141 1.441-19.664 1.19-28.19Z" fill="#787876" stroke="#787876"/><path d="M186.247 416.68c-2.018 15.132-7.874 27.865-13.404 36.672 2.47-5.161 4.606-11.173 6.319-17.411 3.322-12.097 5.083-25.152 4.58-34.721-.689-13.084-6.322-28.289-10.24-36.918 1.798 2.267 3.803 4.936 4.806 6.692.177.31.412.684.691 1.129 1.333 2.121 3.673 5.844 5.515 11.833 2.228 7.238 3.724 17.79 1.733 32.724Z" fill="#E5E7E4" stroke="#E5E7E4"/><path d="M169.488 442.54c13.421-32.343 1.84-62.899-7.876-77.346 21.125 17.053 21.109 38.484 20.631 48.529-.096 2.01-.941 4.88-2.29 8.248-1.343 3.354-3.166 7.154-5.179 11.006a249.91 249.91 0 0 1-5.286 9.563Z" fill="#5C5C5C" stroke="#5C5C5C"/><path d="M155.242 447.746c2.8-19.2-3.5-68.666-7-91 17.5 18 17 47 17.5 57.5.4 8.4-6.833 25.834-10.5 33.5Z" fill="#696967" stroke="#696967"/><path d="M151.742 436.746c0-1.333-.379-5.506-.987-11.354-.609-5.867-1.453-13.456-2.391-21.652a7231.388 7231.388 0 0 0-5.109-43.3l8.992 24.408c.835 16.38 2.394 51.221 1.996 60.377-.121 2.785-1.125 6.031-2.545 9.29-1.417 3.252-3.232 6.479-4.942 9.216a91.117 91.117 0 0 1-2.33 3.542c.314-.813.636-1.708.961-2.662.99-2.905 2.024-6.417 2.964-9.987.94-3.571 1.786-7.207 2.398-10.361.609-3.141.993-5.839.993-7.517Z" fill="#C5C5C5" stroke="#C5C5C5"/><path d="m144.737 428.187-1.995 6.316v-33.238l1.995 26.922Z" fill="#80807E" stroke="#80807E"/><path d="M137.591 422.65a2060.037 2060.037 0 0 1 2.804-30.913c.075 4.414.163 10.065.222 15.765.063 5.999.094 12.057.047 16.802a183.273 183.273 0 0 1-.134 5.952 38.778 38.778 0 0 1-.121 1.898c-.048.508-.099.808-.141.934-.658 1.974-2.899 11.348-4.519 18.27.167-6.701.909-17.364 1.842-28.708Z" fill="#D3D3D3" stroke="#D3D3D3"/><path d="M137.133 369.401c.444-1.766.93-3.333 1.46-4.655-1.067 17.708-3.29 50.668-4.808 59.708l-.013-.107a46.443 46.443 0 0 1-.218-2.646c-.249-4.245-.312-11.135-.062-18.813.25-7.678.811-16.128 1.808-23.496.499-3.685 1.105-7.091 1.833-9.991Z" fill="#727270" stroke="#727270"/><path d="M135.534 360.893c-1.07 8.684-2.524 21.369-3.652 33.206-.784 8.23-1.415 16.079-1.646 21.889-1.056-9.351-1.822-23.321 0-35.166 1.197-7.78 2.525-12.956 3.69-16.259.583-1.652 1.122-2.827 1.579-3.62l.029-.05Z" fill="#888" stroke="#888"/><path d="M122.994 382.809c.096-6.321.563-11.687 1.497-15.635-.005.543.003 1.107.027 1.68.092 2.259.429 4.709 1.267 6.595l.639 1.438.309-1.543c.42-2.1 1.781-7.102 4.139-12.217-1.563 12.741-3.186 31.462-3.38 49.614-.104 9.804.209 19.451 1.176 27.906.955 8.354 2.553 15.587 5.046 20.659l-1.894 7.955c-2.523-14.772-5.688-36.58-7.467-56.871-.939-10.71-1.491-20.988-1.359-29.581Z" fill="#8E8E8E" stroke="#8E8E8E"/><path d="M124.021 454.041c-1.628-8.642-3.613-22.168-4.53-36.015-.869-13.14-.772-26.512 1.478-36.278l5.261 69.349-2.209 2.944Z" fill="#545454" stroke="#545454"/><path d="M122.182 366.294c-8.721 40.349-2.843 79.41 2.122 97.348-10.145-16.379-12.49-36.379-11.163-55.048 1.156-16.257 5.093-31.46 9.041-42.3Z" fill="#CACACA" stroke="#CACACA"/><path d="M32.84 324.364a161.732 161.732 0 0 0-1.888 3.395 72.643 72.643 0 0 0-1.76 3.447c-.469 1-.826 1.875-.94 2.442l-.324 1.62 1.168-1.168c1.386-1.387 4.15-3.956 6.891-6.055-2.476 2.754-5.369 6.122-7.964 9.443-1.851 2.37-3.557 4.724-4.853 6.817-.162.261-.318.52-.467.774 1.466-5.548 4.572-13.519 10.137-20.715Z" fill="#6E6E6C" stroke="#6E6E6C"/><path d="M38.905 332.434a24.895 24.895 0 0 1 1.487-1.044c-3.039 4.65-7.156 11.179-10.645 17.206-1.93 3.334-3.671 6.522-4.932 9.156-.63 1.317-1.144 2.504-1.502 3.506-.178.501-.322.968-.42 1.39-.186-1.15-.32-2.759-.276-4.64.124-5.184 1.606-12.279 6.97-17.4 4.393-4.193 7.377-6.72 9.318-8.174Z" fill="#575958" stroke="#575958"/><path d="M32.419 362.739c2.078-9.633 6.582-19.187 15.184-25.76-6.595 7.978-15.441 23.27-16.67 42.119-.112-5.067.269-10.719 1.486-16.359Z" fill="#6F6F6F" stroke="#6F6F6F"/><path d="M51.242 340.246c-4.666 7.667-14.4 25.2-16 34 .5-9 4.4-28.4 16-34Z" fill="#545655" stroke="#545655"/><path d="M46.742 355.246c-4.29 15.412-8.216 52.602 8.406 83.072a411.472 411.472 0 0 0 2.594 4.428 83.296 83.296 0 0 1-2.594-4.428c-4.492-7.773-10.76-19.136-12.406-24.072-2.017-6.053 3.131 12.976 7.821 23.169a128.434 128.434 0 0 0 3.18 5.331c-.965-.964-2.06-2.895-3.18-5.331-7.404-13.072-17.553-35.422-15.82-50.669 2-17.6 8.833-28.333 12-31.5Z" fill="#5F5F5F" stroke="#5F5F5F"/><path d="M52.742 421.246c-9.2-38 .167-66.5 6-76-6.4 2.8-10.333 10.167-11.5 13.5-6.4 20.4 1 50.167 5.5 62.5Z" fill="#5B5B5B" stroke="#5B5B5B"/><path d="M54.493 387.627c.71-6.84 2.514-14.039 5.912-23.098-2.947 10.941-4.835 23.995-3.158 36.782 3.534 26.954 10.974 44.229 21.325 56.235-7.988-6.957-18.937-20.341-21.836-38.379-2.047-12.737-3.255-21.791-2.243-31.54Z" fill="#D8D8D8" stroke="#D8D8D8"/><path d="M74.514 352.679c-7.55 12.898-15.924 40.46-5.89 76.725-3.608-7.972-7.215-19.402-8.434-32.367-1.394-14.836.341-31.657 8.759-47.605a186.31 186.31 0 0 0-2.504 9.501c-.6 2.578-1.114 5.119-1.433 7.345-.318 2.215-.45 4.163-.265 5.535l.994-.028c.278-3.619 2.458-11.856 8.773-19.106Z" fill="#B7B7B5" stroke="#B7B7B5"/><path d="M30.242 354.746c-2 9-5.4 29.1-3 37.5-2.666-9-5.8-29.1 3-37.5Z" fill="#6C6C6C" stroke="#6C6C6C"/><path d="M84.535 361.755c-3.217 6.334-6.849 14.783-9.742 24.088-2.864 9.211-5.01 19.284-5.306 28.987-1.462-10.554-2.175-22.297-1.09-33.054 1.262-12.489 4.936-23.531 12.551-29.905-1.534 3.43-3.469 8.178-5.077 13.031-1.912 5.77-3.39 11.769-3.128 15.876l.998.002c.076-1.139.833-3.712 2.952-7.581 1.675-3.057 4.186-6.899 7.842-11.444Z" fill="#71716F" stroke="#71716F"/><path d="M84.103 417.737c-1.485-15.815 2.063-32.856 16.249-47.047-8.71 15.279-18.956 47.63-5.375 81.448-4.953-9.041-9.643-21.293-10.874-34.401Z" fill="#ABABAB" stroke="#ABABAB"/><path d="M34.184 344.918c2.346-4.426 5.76-9.569 9.446-12.796a392.968 392.968 0 0 1-6.29 10.866c-1.37 2.268-2.696 4.384-3.827 6.056a40.9 40.9 0 0 1-1.525 2.128c-.33.423-.61.75-.838.979.045-.237.12-.53.226-.875.456-1.482 1.44-3.779 2.808-6.358Zm-3.434 7.562.003-.001-.003.001Zm.357.184v.003-.003Z" fill="#464646" stroke="#464646"/><path d="M108.129 366.141c-3.152 9.336-6.592 22.883-8.209 37.714-1.723 15.805-1.38 33.112 3.622 48.345a106.265 106.265 0 0 1-7.031-15.029c-3.097-8.268-5.363-17.691-4.77-26.391.594-8.716 3.86-18.654 7.722-27.56a162.187 162.187 0 0 1 8.666-17.079Z" fill="#9D9D9D" stroke="#9D9D9D"/><path d="M121.884 469.403c-12.482-20.447-25.157-60.467-4.468-104.843-3.34 11.786-6.49 28.754-6.761 47.204-.279 18.96 2.481 39.523 11.229 57.639Z" fill="#E2E4E3" stroke="#E2E4E3"/><path d="M78.99 430.063c-4.571-18.354-3.102-39.857 11.658-61.933-10.474 21.117-17.533 61.087 12.572 104.574-9.358-9.519-19.728-24.562-24.23-42.641Z" fill="#E6E6E6" stroke="#E6E6E6"/><path d="M38.742 289.246c1 5.5 4.3 17.3 9.5 20.5-3.666-1.5-10.7-7.7-9.5-20.5Z" fill="#393B3A" stroke="#393B3A"/><path d="M207.742 316.746c-8.8-3.2-27-21-35-29.5 21 18 31 25.5 44.5 27.5 10.8 1.6 17.5-8.666 19.5-14l-2.5 7c-4 9-15.5 13-26.5 9Z" fill="#BAB6B7" stroke="#BAB6B7"/><path d="M176.485 318.309c-1.715-.953-3.754-2.913-5.944-5.525-2.18-2.599-4.474-5.801-6.706-9.188-3.379-5.127-6.601-10.662-9.05-15.14l16.075 18.613c2.331 2.83 5.354 6.798 6.896 9.547.386.687.668 1.278.825 1.745.079.234.121.42.134.562a.533.533 0 0 1-.009.209c-.036.011-.133.025-.327-.012-.393-.074-1.005-.317-1.894-.811Z" fill="#585657" stroke="#585657"/><path d="M144.742 288.246c4.334 7.334 15.2 22.9 24 26.5-6.166-8.333-19.6-25.3-24-26.5Z" fill="#444442" stroke="#444442"/><path d="M63.242 323.246c18 1.2 37.5-22.833 45-35h-5c-1.5 0-15 12.5-24 21-7.2 6.8-15.666 8.167-19 8 3-1 16-7.5 18.5-11 2-2.8 16.167-14.833 23-20.5-11.5 2.5-26.5 20-41.5 26.5-12 5.2-23.333-6.166-27.5-12.5 8.5 17 8 22 30.5 23.5Z" fill="#9D9AA1"/><path d="M85.242 322.246c1.6-1.2 18.334-21.5 26.5-31.5l-1.5-2.5c-.5 3-27 35.5-25 34Z" fill="#1A1A1A"/><path d="M72.742 187.746c-14.412 0-30.609 2.206-37.5 3.404v-22.232c1.75-2.249 4.34-5.571 6.556-8.401a991.43 991.43 0 0 1 2.94-3.737c.389-.489.711-.894.95-1.188.118-.147.215-.265.287-.352l.088-.103.022-.025.01-.012a.594.594 0 0 0 .134-.212.901.901 0 0 0 .036-.131c.015-.075.025-.16.032-.246.014-.176.021-.41.023-.689a57.614 57.614 0 0 0-.05-2.294 344 344 0 0 0-.379-7.337 1316.27 1316.27 0 0 0-1.15-16.982v-.003c-.484-5.972 2.804-19.145 20.123-23.475 8.71-2.178 19.388-1.894 29.227-.639 9.83 1.254 18.773 3.472 23.997 5.13 4.088 1.362 15.002 3.038 26.322-1.005a523.325 523.325 0 0 0 6.134-2.246c11.235-4.169 21.236-7.88 37.724-8.725 9.769-.501 17.565-.743 23.542.736 2.975.736 5.478 1.894 7.538 3.645 2.059 1.75 3.703 4.114 4.928 7.299 4.947 12.863 3.472 23.742 1.472 37.247-1.004 6.773-.409 9.951 1.155 12.059.768 1.035 1.749 1.779 2.764 2.546l.039.03c1.014.766 2.089 1.578 3.165 2.773.446.496.86.926 1.235 1.315l.301.313c.455.475.842.895 1.179 1.339.66.871 1.147 1.861 1.478 3.545.664 3.378.679 9.427.201 22.537-13.907-2.993-47.319-6.887-74.637.629-2.574.498-6.623 1.168-10.425 1.565-1.906.199-3.741.329-5.292.335-1.571.006-2.786-.116-3.493-.381-.809-.303-1.612-1.241-2.352-2.752-.727-1.484-1.341-3.412-1.837-5.519-.991-4.213-1.487-9.049-1.487-12.261l-1-.012c-.082 3.473-.629 8.672-1.989 12.987-.681 2.16-1.554 4.061-2.648 5.414-1.087 1.345-2.359 2.111-3.863 2.111-2.086 0-5.428-.369-9.589-.933-2.558-.346-5.409-.763-8.45-1.207-1.898-.278-3.87-.566-5.89-.855-10.497-1.499-22.28-3.005-31.57-3.005Zm49.479 26.5c-.344 8.214-1.087 24.992-1.477 30.465-.197 2.749-.886 4.094-1.552 4.704-.641.588-1.326.555-1.753.372l-.094-.041h-.103c-2.151 0-5.576.539-8.929 2.15-3.359 1.613-6.671 4.316-8.53 8.653-1.106 2.58-2.227 4.172-3.459 5.315-1.237 1.148-2.614 1.871-4.299 2.682l-.63.302c-3.305 1.578-7.58 3.618-13.506 9.545-9.627 9.627-12.09 20.644-12.154 25.666a31.41 31.41 0 0 0-1.563.192c-.208.03-.538-.029-1.011-.247-.462-.213-1.003-.551-1.607-.999-1.208-.894-2.616-2.182-4.07-3.648-2.903-2.929-5.94-6.514-7.85-8.921l-.69-.872-.194 1.095-.738 4.183c-1.694-26.425-8.355-42.602-11.77-47.748.01-15.439 1.566-32.402 2.417-39.625l2.638 1.13c1.217 6.818 4.834 22.235 10.01 31.393 1.39 2.458 4.21 4.214 7.743 5.466 3.548 1.258 7.898 2.038 12.469 2.486 9.142.896 19.252.469 25.774-.2l.055-.006.052-.017c6.772-2.257 12.226-8.425 16.282-15.115 3.961-6.532 6.642-13.647 7.942-18.36h.597Zm-72.979-8.516v-.018c-.145-2.062.607-4.169 1.646-5.993.988-1.733 2.21-3.163 3.069-3.988l12.816-.986c17.37-.798 28.864.203 36.165 1.765 3.651.782 6.239 1.701 7.985 2.597 1.725.884 2.558 1.711 2.842 2.298 2.443 11.563-1.001 21.033-5.502 27.815a43.239 43.239 0 0 1-6.942 8.077c-2.181 1.972-3.977 3.147-4.776 3.49-.794.34-2.595.68-5.109.923-2.488.24-5.61.38-9.002.349-6.791-.062-14.606-.811-20.534-2.787-2.25-.75-4.162-2.548-5.771-5.052-1.608-2.502-2.885-5.665-3.882-9.064-1.993-6.799-2.84-14.455-3.005-19.426Z" fill="#FDFDFD" stroke="#FDFDFD"/><path d="M114.087 53.722c10.217 3.34 17.218 11.91 21.818 21.356 3.856 7.917 5.999 16.396 6.932 22.78-3.93-8.99-11.298-24.383-17.695-32.912-1.861-2.482-5.165-4.972-9.238-7.368-4.085-2.403-8.992-4.738-14.105-6.892a223.611 223.611 0 0 0-9.475-3.727 754.68 754.68 0 0 1 21.763 6.763Z" fill="#52514F" stroke="#52514F"/><path d="M94.242 317.746c4.4-2.4 20.834-20.333 28.5-29-.166-.833-1.2-1.8-4 1s-17.5 19.834-24.5 28Z" fill="#474747"/><path d="M110.742 308.246c2.4-4.4 12-15.166 16.5-20 0 .5-.1 1.9-.5 3.5s-10.833 11.667-16 16.5Z" fill="#1E1E20"/><path d="M118.742 304.746c2.4-1.2 11.334-11.5 15.5-16.5 0 1-.6 4.1-3 8.5s-8.666 9.167-11.5 11c-1.333-.5-3.4-1.8-1-3Z" fill="#3F4140" stroke="#3F4140"/><path d="m242.742 249.746-1-19.5c5.5 0 7.5.5 9 7 1.2 5.2-4.833 10.5-8 12.5Z" fill="#EEEEEC" stroke="#EEEEEC"/><path d="m242.242 211.246.5 12.5c1.6-11.2 8.5-14.5 12-14.5 5.2 0 7.167 7.667 7.5 11.5-2.666-1.666-8.5-4.8-10.5-4-2 .8-3.166 4.667-3.5 6.5 3.167 1 9.1 5.3 7.5 14.5-1.6 9.2-9 16.5-12.5 19-.4 9.2 1.5 10.834 2.5 10.5 17-9 27.5-59.5 14.5-64-10.4-3.6-16.333 3.834-18 8Z" fill="#FDF8FE"/><path d="M23.242 238.246c-.8-7.2 4.334-9 7-9l-1.5 22c-1.5-1.333-4.7-5.8-5.5-13Z" fill="#EFEAEE" stroke="#EFEAEE"/><path d="M117.742 150.746c1.6.4 1.667-.833 1.5-1.5 1 0-11-4-16.5-5s-22-1-23.5 0c-1.2.8-1.166 2-1 2.5 2.167-.333 8.4-.9 16-.5 9.5.5 21.5 4 23.5 4.5Z" fill="#2A2A28" stroke="#2A2A28"/><path d="M156.742 186.746c-3.6-8.8 1.834-15 5-17v4.5c2.4-4 6.334-6 8-6.5 8.167-1.833 27.3-4.8 38.5-2s15 16.5 15.5 23c-2.333-1-7.9-3.3-11.5-4.5-4.5-1.5-14.5-1-32.5 3.5-14.4 3.6-21.333.834-23-1Z" fill="#030303" stroke="#030303"/><path d="M146.742 308.246c-4-2.8-7.333-8.5-8.5-11-.8 4.4-8 9.834-11.5 12 2.8 0 7.5 2.334 9.5 3.5 2.8-1.6 8.167-3.666 10.5-4.5Z" fill="#fff"/><path d="M184.242 243.246c-16.8-.4-23-22.833-24-34-1.148-6.8 4.188-10.5 7-11.5 12.4-6 42.834-3.5 56.5-1.5 4 14.5-4 34-7.5 40s-11 7.5-32 7Z" fill="#FEFEFE"/><path d="M152.242 215.246c.4-2 1.5-1.166 2-.5 1.667 5.667 5.5 17.6 7.5 20 2.5 3 11 14 26.5 13.5s27-1.5 32-7.5 9.5-28.5 10-32.5h5.5l1.5 37.5c-3.833 9.5-11.3 31.1-10.5 41.5l-14 18c-1.666 2-5.2 4.4-6-2-1-8-3-19-13-26s-18-16-20-19-8-8.5-11.5-8l-.429.061c3.685 3.198 10.622 10.362 9.429 13.939-1.5 4.5-1.5 10.5-8 10s-10 1-11.5 1.5-8.5 7.5-12 7c-2.8-.4-4.166-.166-4.5 0-3.833-3-14-9-24-9-3-1.5-8.3-6-5.5-12 3.5-7.5 8-10 12.5-9l3 3.5c1.334-3.833 4-11.6 4-12 0-.4 1.334-24.166 2-36 0-1.166.7-3.6 3.5-4 3.5-.5 15.5-2.5 16.5 2.5.8 4 5 32.334 7 46l2.471 2.774c-1.675-12.745-4.868-38.286-4.471-40.274Z" fill="#FDFDFD"/><path d="m156.742 255.746-.029-.226m0 0c-1.675-12.745-4.868-38.286-4.471-40.274.4-2 1.5-1.166 2-.5 1.667 5.667 5.5 17.6 7.5 20 2.5 3 11 14 26.5 13.5s27-1.5 32-7.5 9.5-28.5 10-32.5h5.5l1.5 37.5c-3.833 9.5-11.3 31.1-10.5 41.5l-14 18c-1.666 2-5.2 4.4-6-2-1-8-3-19-13-26s-18-16-20-19-8-8.5-11.5-8c-2.8.4-1.5.167-.5 0 3.667 3.167 10.7 10.4 9.5 14-1.5 4.5-1.5 10.5-8 10s-10 1-11.5 1.5-8.5 7.5-12 7c-2.8-.4-4.166-.166-4.5 0-3.833-3-14-9-24-9-3-1.5-8.3-6-5.5-12 3.5-7.5 8-10 12.5-9l3 3.5c1.334-3.833 4-11.6 4-12 0-.4 1.334-24.166 2-36 0-1.166.7-3.6 3.5-4 3.5-.5 15.5-2.5 16.5 2.5.8 4 5 32.334 7 46l2.471 2.774Z" stroke="#FDFDFD"/><path d="m160.742 274.246 10.5-12c.5 1.5-.4 4.9-2 8.5-1.6 3.6-4.5 4-8.5 3.5Z" fill="#AFB3BC" stroke="#AFB3BC"/><path d="M118.742 267.246c2.4-1.6 5.667-.666 7 0-4 .4-5 2.167-5 3l4 7c-4-1.833-12.2-5.7-13-6.5-1-1-4-4.5-1.5-6s3 0 4 2 1.5 2.5 4.5.5Z" fill="#A8A7AC" stroke="#A8A7AC"/><path d="M140.742 270.746c7.6 0 11.5-12.333 12.5-18.5 1.334 3.334 2.1 11.9-5.5 19.5s-17.833.167-22-4.5c1.834 1.167 7.4 3.5 15 3.5Z" fill="#88878C" stroke="#88878C"/><path d="M110.742 277.746c-4.8-3.6-7.333-8.833-8-11 .334-.5.7-1.1-.5.5-1.5 2-8.5 6-19 13.5-8.4 6-9.166 14.5-8.5 18 12.8-14.4 29.334-20 36-21Z" fill="#fff"/><path d="M183.742 200.746c-5.2 1.2-10.833 6.834-13 9.5h9.5c6 8 13.5 8.5 18.5 8 4-.4 5.667-3.166 6-4.5l9-.5c-1-1-4.3-4-9.5-8-6.5-5-14-6-20.5-4.5Z" fill="#030504" stroke="#030504"/><path d="M76.742 201.246c-8 2.4-14.333 9.334-16.5 12.5 2.667.167 8.2.5 9 .5 1 0 6 3.5 12 3.5 4.8 0 11-4.666 13.5-7 2.8 0 5.834-1.666 7-2.5-1-2-15-10-25-7Z" fill="#010101" stroke="#010101"/><path d="M163.742 278.246c4-.4 8.667-6.5 10.5-9.5 19.6 11.6 26.167 27.834 27 34.5-13.6-17.6-30.666-24-37.5-25Z" fill="#F6FBFF" stroke="#F6FBFF"/><path d="M131.242 317.746c-5.6-2.8-15.333.5-19.5 2.5 3.667 2.5 13.7 7.5 24.5 7.5s19.167-5.333 22-8c-12-5.2-17-3.5-18-2h-9Z" fill="#F9F9FB" stroke="#F9F9FB"/><path d="M99.242 350.246c-13.5-5-17-24-15.5-24.5 1.174-.391 15.508-3.045 23-4.409 10 7.091 16.5 8.909 31 9.409 11.6.4 22.5-6.166 26.5-9.5 1.334 0 6.7.7 17.5 3.5s1.5 14.5-4.5 20c-18 14.8-28.833 1.834-32-6.5l5-7c-14 5-30.5 0-30.5 1 0 .8 4.334 5 6.5 7l-.5 3c-.5 7-13 13-26.5 8Z" fill="#FCFDFF"/><path d="m107.242 321.246-.5.091m0 0c-7.492 1.364-21.826 4.018-23 4.409-1.5.5 2 19.5 15.5 24.5s26-1 26.5-8l.5-3c-2.166-2-6.5-6.2-6.5-7 0-1 16.5 4 30.5-1l-5 7c3.167 8.334 14 21.3 32 6.5 6-5.5 15.3-17.2 4.5-20-10.8-2.8-16.166-3.5-17.5-3.5-4 3.334-14.9 9.9-26.5 9.5-14.5-.5-21-2.318-31-9.409Z" stroke="#FCFDFF"/><path d="M160.742 271.746c2.4-.4 1-3.166 0-4.5-7.6 1.2-9.166 1.5-9 1.5-13 15-24.5 1-25.5 0s-4.5.5-4.5 1.5 5 4 10 7 9 2 11 1.5c1.6-.4 7.667-4.5 10.5-6.5 1.5 0 5.1-.1 7.5-.5Z" fill="#090B06" stroke="#090B06"/><path d="M75.742 211.246c-.4-1.2 1.834-3.5 3-4.5 3.6-.4 2.834 1.5 2 2.5-1.5 1.167-4.6 3.2-5 2Z" fill="#EAE5EB"/><circle cx="194.242" cy="210.246" r="2" fill="#ECE5ED" stroke="#ECE5ED"/><path d="M113.742 187.246c6.8-12-.166-16.666-4.5-17.5 2.8 1.2 3.167 7.834 3 11-1.2-6.8-5.833-10.166-8-11-8-4.4-31.333-4.166-42-3.5-9.5 5.5-15 22-13.5 22s3-1.5 9-4.5 9 0 32 4c18.4 3.2 23.667 1 24-.5Z" fill="#030303" stroke="#030303"/><path d="M54.242 122.246c1 5.5 2.9 21.7 2.5 42.5-1.166-10.166-3.3-32.9-2.5-42.5Z" fill="#737373" stroke="#737373"/><path d="M214.742 117.746c-1.5 7.834-4.5 26.6-4.5 39 2.334-7.833 6.5-26.6 4.5-39Z" fill="#50504E" stroke="#50504E"/><path d="M30.742 222.246h-1.5l-3.5-6.5c-6-8-11.5-6.666-13.5-4.5-1.6 1.733-1.666 6.722-1.5 9 .167.334 1.3.2 4.5-3s8.334 2 10.5 5c-4.8.8-7.333 6-8 8.5-3.2 10.8 5.334 21.834 10 26v11.5c-11.5-8-17-23-20-44.5-2.4-17.2 3.334-21.833 6.5-22 12.4-.8 16.167 5.667 16.5 9v11.5Z" fill="#F8F8F8"/><path d="m82.242 325.246.5-3c-19 7.5-20.5 5.5-31 3-8.4-2-15.833-15.5-18.5-22 .5 12 12.5 24.5 24.5 26.5 9.6 1.6 20.334-2.333 24.5-4.5Z" fill="#8F8D8E"/><path d="M92.242 316.746c1.6-1.6 16-17.333 23-25v-.5h-1.5l-21.5 25.5Z" fill="#1A1A1A"/><path d="M141.242 286.746c.07.28.147.574.231.882 1.786 5.872 9.469 16.709 13.269 21.618-6.864-3.432-11.547-15.318-13.269-21.618a11.27 11.27 0 0 1-.231-.882Z" fill="#171717" stroke="#171717"/><path d="M181.242 314.746c-8.4-12.4-19.5-24.5-24-29l7 1c1.167 1.667 5.9 8.4 15.5 22 12 17 23.5 18.5 35.5 18.5 9.6 0 21.334-15 26-22.5-2.5 8.5-13 21-22 24s-27.5 1.5-38-14Z" fill="#525252" stroke="#525252"/><path d="M191.742 315.246c-4-3.5-19.5-24.5-25-30 7.5 6.667 23.8 21.4 29 27 6.5 7 23.5 14 34 2.5 8.4-9.2 8.834-21.5 8-26.5 1.834 7.5 1.7 24.4-13.5 32-15.2 7.6-28.5-1-32.5-5Z" fill="#8F918E" stroke="#8F918E"/><path d="M63.242 306.246c-7.6.4-11.5-7.5-12.5-11.5 0 2.334.5 7.8 2.5 11s7.5 1.667 10 .5Z" fill="#454344" stroke="#454344"/><path d="M227.742 288.746c.5 3.834-.2 13.1-7 19.5 5-4.666 13.4-15.1 7-19.5Z" fill="#646464" stroke="#646464"/><path d="M166.064 399.628c-.674-6.004-1.592-12.333-2.362-17.129 2.596 5.158 4.763 12.365 5.984 20.323 1.43 9.331 1.552 19.642-.432 28.819-2.165 10.013-8.002 21.702-13.138 30.456 2.358-6.372 4.396-14.325 6.053-21.819 1.662-7.519 2.951-14.634 3.792-19.272.326-1.801.585-3.228.772-4.162.313-1.566.344-4.069.202-7.051-.142-2.997-.462-6.524-.871-10.165Z" fill="#DEDEDC" stroke="#DEDEDC"/><path d="M186.509 443.384c-3.251 5.645-6.92 10.551-9.945 14.071 22.802-44.052 14.197-77.731 5.436-91.809 4.915 4.532 8.221 11.914 10.256 20.59 2.361 10.066 2.985 21.768 2.487 32.487-.395 8.487-3.936 17.198-8.234 24.661Z" fill="#D1D1D1" stroke="#D1D1D1"/><path d="M46.935 114.206c-12.529-1.555-21.055-9.711-26.342-18.153 3.42 3.613 7.666 6.603 11.997 8.993 5.688 3.139 11.555 5.265 15.967 6.419a7.153 7.153 0 0 0-.6.826 16.78 16.78 0 0 0-1.022 1.915Z" fill="#FBF7F8" stroke="#FBF7F8"/><path d="M87.242 66.246c-27.2-11.6-35.333-19.5-36-22 13.5 8 7.5 5 34 14.5 21.2 7.6 30.167 32.167 32 43.5-4-19.6-21.666-32.166-30-36Z" fill="#6C6A6D" stroke="#6C6A6D"/><path d="M184.742 38.246c14 16 16.5 40.334 16 50.5-3-33-21.5-59-49.5-67.5-22.4-6.8-54.666-1.5-68 2 42.5-17.5 84-5 101.5 15Z" fill="#A4A4A2" stroke="#A4A4A2"/><path d="M186.742 69.246c-6-24.8-32.166-40.333-44.5-45 5.667 3.5 19.5 13.4 29.5 25s14.167 32.5 15 41.5c2.4-6.4 1-17 0-21.5Z" fill="#3C3C3C" stroke="#3C3C3C"/><path d="M149.742 46.246c13.6 10.8 18.667 32.834 19.5 42.5-.5-5.166-4.5-19.5-16.5-35.5s-30.333-20.333-38-20.5c-24.481 0-40.454-1.52-49.251-2.936-4.036-.442-6.334-1.071-7.249-1.564 1.298.433 3.684.99 7.249 1.564 5.525.606 14.306.861 27.251-.064 28-2 40 3 57 16.5Z" fill="#615F61"/><path d="M169.242 88.746c-.833-9.666-5.9-31.7-19.5-42.5-17-13.5-29-18.5-57-16.5-22.4 1.6-32.333-.333-34.5-1.5 4.5 1.5 22.1 4.5 56.5 4.5 7.667.167 26 4.5 38 20.5s16 30.334 16.5 35.5Z" stroke="#615F61"/><path d="m134.468 39.664.009.006c11.097 6.935 18.458 17.14 23.15 27.102 3.701 7.855 5.733 15.54 6.63 21.31-4.035-10.707-8.141-18.613-12.86-25.129-5.288-7.303-11.329-12.837-18.85-18.604-6.101-4.676-15.785-7.567-25.341-9.295-5.417-.98-10.82-1.589-15.551-1.934 10.775-.432 19.542.248 26.343 1.382 8.689 1.449 14.136 3.633 16.47 5.162Z" fill="#9EA39C" stroke="#9EA39C"/><path d="M157.228 90.555c-1.744-5.029-4.553-11.762-8.269-18.415-4.527-8.103-10.431-16.144-17.44-20.81-6.987-4.651-17.498-8.125-27.752-10.582-6.44-1.544-12.803-2.69-18.166-3.476 19.753.778 37.07 6.367 43.917 9.422 21.155 11.843 27.133 32.694 27.71 43.861Z" fill="#9EA39C" stroke="#9EA39C"/><path d="M98.848 46.758c-10.106-2.19-18.251-4.752-24.548-7.203 3.649.837 7.601 1.517 11.739 2.228 2.13.367 4.31.742 6.523 1.151 9.833 1.819 20.388 4.323 30.443 9.752 9.867 5.328 16.137 14.344 19.964 23.49 2.548 6.093 4.005 12.225 4.718 17.323-3.094-11.712-7.744-21.243-14.576-28.715-8.086-8.844-19.188-14.76-34.263-18.026Z" fill="#949492" stroke="#949492"/><path d="M141.242 101.746a100.853 100.853 0 0 0-1.952-7.54c-2.531-6.586-7.789-15.37-17.548-22.96-12.852-9.996-38.876-22.33-54.038-28.894-1.933-.728-3.612-1.43-4.962-2.106a362.91 362.91 0 0 1 4.962 2.106c12.39 4.668 35.266 10.407 49.538 16.894 10.782 4.901 18.295 22.367 22.048 34.96 1.204 3.132 1.791 5.768 1.952 7.54Z" fill="#454344"/><path d="M141.242 101.746c-2.5-11.666-10.8-36.5-24-42.5-16.5-7.5-44.5-14-54.5-19 13.667 5.667 44.6 19.8 59 31 14.4 11.2 19 25 19.5 30.5Z" stroke="#454344"/><defs><linearGradient id="a" x1="185.555" y1="5.246" x2="185.555" y2="89.246" gradientUnits="userSpaceOnUse"><stop stop-color="#A5A7A6"/><stop offset=".425" stop-color="#4A4A4A"/></linearGradient><linearGradient id="b" x1="205.919" y1="15.746" x2="205.919" y2="91.246" gradientUnits="userSpaceOnUse"><stop stop-color="#DEDEDE"/><stop offset=".57" stop-color="#2A2A2A"/></linearGradient><linearGradient id="c" x1="131.216" y1="4.446" x2="131.216" y2="87.746" gradientUnits="userSpaceOnUse"><stop stop-color="#E8E8E8"/><stop offset=".23" stop-color="#4A4A4A"/></linearGradient></defs></svg>