<svg width="507" height="502" fill="none" xmlns="http://www.w3.org/2000/svg"><path d="M32 172.5C55.6 122.9 110.833 74.167 135.5 56c8.667-6.167 26.6-19 29-21 3-2.5 58-31.5 71-33s44-6 49.5 21.5c4.4 22-25.167 43.5-40.5 51.5L185 115c-10.667 6.5-34.5 25.6-44.5 50s24.5 28.167 43 27c12.8 2.8 25.333 7.833 30 10-22 45-33.5 71-35 129-1.2 46.4 16.5 89.333 25.5 105-58.8 21.2-102.5 8.833-117 0-16.833-6.167-55.3-31.8-74.5-85-24-66.5-10-116.5 19.5-178.5Z" fill="#fff" fill-opacity=".05"/><path d="M233.16 402.367c-24.4-56.8-3.167-130.333 10.5-160 15-31 56-87.5 76.5-104s65-55.5 111.5-75.5 66.5-5.5 73.5 7.5-7.5 41.5-28 50-71.5 47.5-83 55.5-35 32.5-34.5 51.5c.4 15.2 32.833 18.333 49 18 36 7.5 57 33 67 46s44.5 83 10.5 141.5-92.5 70.5-130.5 68.5-92-28-122.5-99Z" fill="#fff" fill-opacity=".05"/></svg>