<svg width="382" height="215" fill="none" xmlns="http://www.w3.org/2000/svg"><path d="M176.702 24.94c14.505-7.76 17.85-18.976 17.71-23.614l2.53-.632c4.554 9.95-8.082 24.245-14.969 30.149l-24.035 23.613-19.397 19.397c-4.849 5.2-15.306 16.402-18.342 19.607-3.036 3.205-2.952 5.833-2.53 6.747l5.903 12.439-1.898 3.162c-12.649 19.734-72.456 73.862-100.777 98.459C8.078 210.725 2.624 200.844 1.5 196.346L176.702 24.939Z" fill="#CDCDCD" stroke="#A4A4A4" stroke-width="1.2"/><path d="m105.862 99.363 16.023 15.813-.632.843-16.656-16.023L4.03 199.087c4.217 10.457 12.72 14.337 16.445 14.969-10.626-1.687-17.078-12.439-18.764-17.499l.843-.843 1.054 2.53L77.4 125.506c8.573-8.503 25.932-25.637 26.775-26.143.844-.506 1.476-.21 1.687 0Z" fill="#A4A4A4"/><path d="m4.452 200.141 100.988-99.513 1.898 1.898-101.2 101.41-1.686-3.795ZM157.305 53.19c-5.481 5.623-19.059 19.355-29.516 29.307-9.831 9.354-11.364 14.474-10.87 16.163-3.299-3.261 10.51-18.881 17.827-26.283L176.28 30.42c19.059-12.987 21.575-23.965 20.451-27.83l-1.054.211c-.134.32-.306.745-.45 1.12-.013.32-.066.602-.183.777-.209.314-.051-.166.183-.777.025-.602-.091-1.34-.183-1.753l2.108-.632c.844 1.687.352 5.06 0 6.536-1.686 8.644-14.969 19.818-17.92 22.98-2.362 2.53.421 1.476 2.108.633L157.305 53.19Z" fill="#A4A4A4"/><path d="m167.262 34.434.142.056.146.048c97.013 31.895 178.226 110.308 206.819 145.715 4.755 7.926 1.565 12.847.613 13.774l-.337.328-.27.385c-2.909 4.147-5.873 4.762-8.382 4.463-2.984-.355-5.969-2.15-7.746-3.79l-.211-.194-.231-.169c-.506-.37-2.442-2.077-6.122-5.956-3.582-3.776-8.641-9.421-15.335-17.454-8.84-10.608-35.094-33.42-63.988-55.36-28.885-21.934-61.397-43.757-82.916-51.95-16.374-6.233-26.602-11.77-32.696-16.028-3.05-2.132-4.969-3.877-6.095-5.147-.585-.66-.871-1.096-1.001-1.315.037-3.377.807-5.337 1.607-6.474.824-1.173 2.011-1.946 3.664-2.382 3.628-.958 8.634-.026 12.339 1.45Z" fill="#2C2C2C" stroke="#232222" stroke-width="10"/><circle cx="163.63" cy="41.173" r="1.53" fill="#A4A4A4" stroke="#CDCDCD" stroke-width="2"/></svg>