<svg width="992" height="750" fill="none" xmlns="http://www.w3.org/2000/svg"><path d="M798.172 114.841c-3.867-40.991 34.159-74.441 53.655-86.042 24.363-15.082 55.589-14.018 68.157-11.601 64.193 21.655 58.328 72.83 47.372 95.709-38.671 69.994-97.966 68.802-122.78 59.456-13.857-2.094-42.537-16.531-46.404-57.522Z" stroke="#005AE1" stroke-width="2.5"/><path d="M569.532 456.592c-2.033-1.829 27.391-10.956 41.087-14.501l13.051 12.084 14.502 15.469-18.852-13.535-26.103 9.668 180.785 121.812c-67.834-42.538-199.636-126.646-204.47-130.997Zm37.386-18.966.08-.028c.89.971 1.374 1.528-.08.028l-35.691 12.54c-25.458-14.179-67.093-45.824-29.969-58.972 24.28-8.6 33.893-12.016 36.737-13.035v-.017c1.115-.39 1.504-.522 0 .017.165 9.839 3.875 33.055 17.401 47.355 6.737 7.121 10.081 10.626 11.522 12.112Zm-37.87-75.293-83.141 27.553v-12.085c17.401-22.042-2.095-32.709-14.019-35.287l2.417-14.018c13.535-17.402 100.383-50.111 142.115-64.29l183.202-106.344 2.9 5.317-130.513 79.758c-39.831 20.882-55.911 36.093-58.973 41.088-34.417 22.815-43.665 61.712-43.988 78.308Zm-166.283-10.151 39.154-16.435c-8.54 4.833-25.813 14.888-26.586 16.435-.967 1.933 0 19.335.966 23.202.774 3.094 8.057 22.558 11.602 31.903-8.121-8.121-20.141-40.12-25.136-55.105Z" fill="#2B7FFF"/><path d="M264.517 412.604c24.653-12.245 98.32-46.888 195.77-87.492 30.131-14.34 93.39-44.278 105.378-49.305 11.988-5.027 157.099-87.17 228.156-127.613l-6.767-19.335c-4.351-50.129 17.885-78.308 59.939-107.794 42.055-29.487 84.592-16.435 103.444-5.801 18.852 10.634 42.538 44.471 37.704 76.374-4.834 31.904-37.22 66.707-79.275 89.426-33.643 18.175-83.303.484-103.927-10.634L622.22 285.958c-41.764 18.949-48.338 62.679-46.404 82.175l-139.698 44.471-227.673 80.242-197.704 63.807c-2.255.644-6.96.87-7.734-3.384-.773-4.254 59.94-37.865 90.393-54.139l171.117-86.526Zm261.676-19.124c34.191-11.86 48.044-15.556 53.006-19.063 2.305 38.26 15.504 48.555 19.506 52.062 12.805 12.594 39.281 38.738 42.738 42.564 3.458 3.826 100.364 75.244 148.384 110.475 20.745-11.861 50.582-12.594 62.907-11.478 16.488 1.754 56.473 15.4 84.517 55.955 28.044 40.555 14.246 79.389 3.842 93.736-7.363 8.768-29.101 26.877-57.145 29.173-28.044 2.296-63.868-15.623-78.274-24.869-12.165-9.405-38.032-35.581-44.179-65.041-6.147-29.46 6.723-54.042 13.926-62.65l-53.303-37.304c-48.021-30.289-145.887-92.205-153.186-97.562-7.3-5.356-63.548-35.071-90.76-49.259 1.761-.638 13.83-4.878 48.021-16.739Z" stroke="#005AE1" stroke-width="5"/><path d="m379.079 352.665 92.326-39.637-186.586-82.175-192.386-82.175c-26.425-10.796-79.951-32-82.658-30.454-2.707 1.547-4.029 6.123-4.35 8.218l107.794 72.507 265.86 153.716Z" fill="#2B7FFF" stroke="#005AE1" stroke-width="5"/><path d="M485.873 360.883c0 6.621-5.577 12.051-12.534 12.051-6.958 0-12.535-5.43-12.535-12.051 0-6.622 5.577-12.052 12.535-12.052 6.957 0 12.534 5.43 12.534 12.052Z" stroke="#005AE1" stroke-width="2"/><circle cx="472.855" cy="361.849" r="10.418" stroke="#005AE1" stroke-width="1.4"/><path d="M80.832 509.281c7.347-3.867 66.868-34.481 95.71-49.305l-9.185 43.021-156.616 51.239H5.424c.806-.967 3.867-3.964 9.668-8.218 7.25-5.317 56.556-31.903 65.74-36.737Zm522.536-42.538c.096-.083.242-.139.443-.162l14.059-5.155c16.274 12.246 49.112 37.124 50.272 38.671 1.45 1.933 59.939 43.504 62.839 43.988 2.901.483 17.402 12.084 21.269 14.501 3.094 1.934 12.568 11.118 16.919 15.468l10.151 7.251 2.417 1.45c-1.451 1.773-4.544 4.641-5.318 1.934-.773-2.707-6.767-6.284-9.667-7.734l-68.641-47.372c-3.544-1.772-18.658-11.408-50.755-35.77-29.726-22.563-41.015-27.519-43.545-27.232l-.443.162Z" fill="#2B7FFF"/><path d="M773.036 622.876c3.48-29.39 35.931-42.538 51.722-45.438 49.788-9.184 98.61 36.254 113.111 74.924 11.601 30.937-4.834 58.328-14.501 68.157-10.957 9.023-41.668 23.686-76.858 10.151-35.19-13.534-55.589-37.22-61.39-47.371-5.478-7.896-15.565-31.033-12.084-60.423Z" stroke="#005AE1" stroke-width="2.5"/><path d="M817.183 53.926c7.613-9.26 15.595-15.855 21.109-19.327-5.091 4.024-13.279 11.153-21.109 19.328-10.407 12.656-20.125 30.29-21.912 51.73-3.093 37.123 19.98 57.683 31.904 63.323 10.634 6.284 39.347 16.628 69.123 7.734 29.777-8.894 49.789-26.909 56.073-34.804 8.217-9.506 24.749-34.9 25.136-60.423.644 10.151-1.451 34.804-14.985 52.206-13.535 17.402-29.809 28.842-36.254 32.386-9.506 6.607-34.9 19.239-60.423 16.919-31.903-2.901-54.622-17.402-65.256-33.354-10.635-15.951-11.602-50.755-1.934-71.057 3.792-7.964 10.994-16.796 18.528-24.66Z" fill="#2B7FFF"/></svg>