<svg width="1921" height="1123" fill="none" xmlns="http://www.w3.org/2000/svg"><path fill-rule="evenodd" clip-rule="evenodd" d="M688 383.5c-149.833-14.5-497.2-35.8-688-5 60.5 25.167 244.8 84 498 118s431.833 55.5 489.5 62l86.5 57c1.5-1.167 6.8-1.9 16 4.5s57.83 34 81 47c11.67 6.667 42.1 19 70.5 15 35.5-5 88.5-7 83 38.5-1.03 8.555-2.16 16.526-3.22 24.111-4.62 32.754-8.21 58.286.72 92.389 11 42 61 74.5 92.5 92.5 25.2 14.4 75.17 42.667 97 55 14 7.167 44.2 28.5 53 56.5 20.33 29.5 66.1 87 86.5 81 8.33-4 27.6-13.5 38-19.5 13-7.5 55-31 76.5-36.5 21.5-9.67 68.3-39.8 83.5-83 19-54 14-93-4.5-125s-87-99.5-133.5-129.5l-2.42-1.562-3.13-2.021c-41.01-26.484-43.41-28.035-123.45-65.417-27.17-12.833-101.3-39.9-180.5-45.5-99-7-176.5-12.5-189.5-25-10.4-10-28.67-43.833-36.5-59.5L1216 502c7.33-5.5 25-16.9 37-18.5 7.11-.948 10.51-4.702 16.7-11.529 6.87-7.58 17.18-18.949 39.8-34.471 43-29.5 80.5-44 103-50s59.5-10 90-9.5 81 19 105 30.5 64.5 37.5 83 57.5c14.8 16 19.17 22.333 19.5 23.5h20.5c-1-7 12.7-26.6 75.5-49s95.83-78.333 104.5-103.5c6.17-19.333 16-65.2 6-94-4.17-15.667-21.5-56.5-57.5-94.5-45-47.5-157-56-190-37.5-3.32 1.863-6.88 3.766-10.61 5.762-33.31 17.831-80.5 43.091-99.39 113.238-3.05 11.34-5.46 21.063-7.54 29.437-12.19 49.221-12.83 51.808-64.96 62.063-22.19 4.365-41.67 6.481-60.6 8.537-33.11 3.597-64.54 7.012-105.9 21.963-33.59 12.144-59.57 26.158-81.59 38.038-20.6 11.11-37.74 20.355-54.41 24.462-8.12 2-14.55 4.111-20.44 6.046-19.15 6.288-32.65 10.719-80.06 3.454-49.42-7.573-94.398-36.115-116.943-50.423-5.737-3.641-10.021-6.36-12.557-7.577-10-4.8-115.167-60.333-166.5-87.5l-164.5-85L487 123 361.5 61c-37.833-19.667-123.2-59.1-162-59.5-6.776-.07-12.791-.296-18.28-.502C147.418-.272 133.536-.794 84.5 40.5L240 132l149.5 83 126 70.5 172.5 98ZM1501 695c-22.33-10-76.4-20.5-114 17.5-47 47.5-27 109-7.5 128 15.6 15.2 124.5 77.667 177 107L1666 1007c30.33 15.83 100.5 31.6 138.5-32 47.5-79.5-30-129-49-138-15.2-7.2-176-97.667-254.5-142Zm367-416.5c0 77.044-62.01 139.5-138.5 139.5-76.49 0-138.5-62.456-138.5-139.5S1653.01 139 1729.5 139c76.49 0 138.5 62.456 138.5 139.5ZM985 515c21.54 0 39-17.461 39-39s-17.46-39-39-39c-21.539 0-39 17.461-39 39s17.461 39 39 39Z" fill="#c58045" fill-opacity=".1"/></svg>