<svg width="646" height="475" fill="none" xmlns="http://www.w3.org/2000/svg"><g opacity=".2" stroke="#005AE1" stroke-linecap="round"><path d="M641 84.094c-25.738-25.12-95.164-37.178-166.964 115.555-89.749 190.915-7.521 200.461-148.412 200.461-140.891 0-210.084 31.652-224.624 69.835" stroke-width="10"/><path d="M640 3.945c-30.167-5.833-116.8 12.6-222 133-131.5 150.5-45.5 237-234 248-123.483 7.206-172.167 58.667-181 85" stroke-opacity=".5" stroke-width="5"/><path d="M640 38.945c-25.5-14.333-96.9-12.2-178.5 111-102 154-85.5 194.768-131.5 218.5-96.996 50.043-234 4-280.5 101.5" stroke-opacity=".7" stroke-width="5"/><path d="M640 59.255C623.559 47.998 577.525 39.39 524.914 95.01c-65.763 69.525-78.511 117.452-105.414 192.935-26.903 75.484-38.5 89.447-72.446 97.578-69.805 16.72-227.681 4.469-263.054 84.422" stroke-opacity=".8" stroke-width="8"/><path d="M641.5 18.945c-30.167-7.5-109.1 2.1-183.5 100.5-93 123-103.5 235-186.5 254.5-126.195 29.648-231.5 25-248 96.5" stroke-opacity=".6" stroke-width="3"/></g></svg>